<?xml version="1.0" encoding="UTF-8"?>
<!DOCTYPE svg PUBLIC "-//W3C//DTD SVG 1.1//EN" "http://www.w3.org/Graphics/SVG/1.1/DTD/svg11.dtd">
<svg version="1.1" xmlns="http://www.w3.org/2000/svg" xmlns:xlink="http://www.w3.org/1999/xlink" x="0" y="0" width="24" height="24" viewBox="0, 0, 24, 24">
  <g id="Layer_1">
    <path d="M22.5,23 L19.5,23 C19.224,23 19,22.776 19,22.5 C19,22.224 19.224,22 19.5,22 L22,22 L22,19.5 C22,19.224 22.224,19 22.5,19 C22.775,19 23,19.224 23,19.5 L23,22.5 C23,22.776 22.775,23 22.5,23 z M22.5,17 C22.224,17 22,16.776 22,16.5 L22,13.5 C22,13.224 22.224,13 22.5,13 C22.775,13 23,13.224 23,13.5 L23,16.5 C23,16.776 22.775,17 22.5,17 z M22.5,11 C22.224,11 22,10.776 22,10.5 L22,7.5 C22,7.224 22.224,7 22.5,7 C22.775,7 23,7.224 23,7.5 L23,10.5 C23,10.776 22.775,11 22.5,11 z M22.5,5 C22.224,5 22,4.776 22,4.5 L22,2 L19.5,2 C19.224,2 19,1.776 19,1.5 C19,1.224 19.224,1 19.5,1 L22.5,1 C22.775,1 23,1.224 23,1.5 L23,4.5 C23,4.776 22.775,5 22.5,5 z M16.5,23 L13.5,23 C13.224,23 13,22.776 13,22.5 C13,22.224 13.224,22 13.5,22 L16.5,22 C16.775,22 17,22.224 17,22.5 C17,22.776 16.775,23 16.5,23 z M16.5,2 L13.5,2 C13.224,2 13,1.776 13,1.5 C13,1.224 13.224,1 13.5,1 L16.5,1 C16.775,1 17,1.224 17,1.5 C17,1.776 16.775,2 16.5,2 z M10.5,2 L7.5,2 C7.224,2 7,1.776 7,1.5 C7,1.224 7.224,1 7.5,1 L10.5,1 C10.775,1 11,1.224 11,1.5 C11,1.776 10.775,2 10.5,2 z M4.5,23 L1.5,23 C1.224,23 1,22.776 1,22.5 L1,19.5 C1,19.224 1.224,19 1.5,19 C1.776,19 2,19.224 2,19.5 L2,22 L4.5,22 C4.776,22 5,22.224 5,22.5 C5,22.776 4.776,23 4.5,23 z M4.5,2 L2,2 L2,4.5 C2,4.776 1.776,5 1.5,5 C1.224,5 1,4.776 1,4.5 L1,1.5 C1,1.224 1.224,1 1.5,1 L4.5,1 C4.776,1 5,1.224 5,1.5 C5,1.776 4.776,2 4.5,2 z M1.5,7 C1.776,7 2,7.224 2,7.5 L2,10.5 C2,10.776 1.776,11 1.5,11 C1.224,11 1,10.776 1,10.5 L1,7.5 C1,7.224 1.224,7 1.5,7 z M1.5,13 C1.776,13 2,13.224 2,13.5 L2,16.5 C2,16.776 1.776,17 1.5,17 C1.224,17 1,16.776 1,16.5 L1,13.5 C1,13.224 1.224,13 1.5,13 z M7.5,22 L10.5,22 C10.775,22 11,22.224 11,22.5 C11,22.776 10.775,23 10.5,23 L7.5,23 C7.224,23 7,22.776 7,22.5 C7,22.224 7.224,22 7.5,22 z" fill="#000000" id="frame" opacity="0.5"/>
    <path d="M18.562,10.25 L13.75,10.25 L13.75,5.438 C13.75,5.196 13.554,5 13.312,5 L10.688,5 C10.446,5 10.25,5.196 10.25,5.438 L10.25,10.25 L5.438,10.25 C5.196,10.25 5,10.446 5,10.688 L5,13.312 C5,13.554 5.196,13.75 5.438,13.75 L10.25,13.75 L10.25,18.562 C10.25,18.804 10.446,19 10.688,19 L13.312,19 C13.554,19 13.75,18.804 13.75,18.562 L13.75,13.75 L18.562,13.75 C18.804,13.75 19,13.554 19,13.312 L19,10.688 C19,10.446 18.804,10.25 18.562,10.25 z" fill="#000000" id="plus"/>
  </g>
</svg>
