<?xml version="1.0" encoding="UTF-8"?>
<!DOCTYPE svg PUBLIC "-//W3C//DTD SVG 1.1//EN" "http://www.w3.org/Graphics/SVG/1.1/DTD/svg11.dtd">
<svg version="1.1" xmlns="http://www.w3.org/2000/svg" xmlns:xlink="http://www.w3.org/1999/xlink" x="0" y="0" width="24" height="24" viewBox="0, 0, 24, 24">
  <g id="Layer_1">
    <path d="M4.438,7.875 L4.438,21.625 C4.438,22.381 5.056,23 5.812,23 L18.188,23 C18.944,23 19.562,22.381 19.562,21.625 L19.562,7.875 L4.438,7.875 z M8.562,20.25 L7.188,20.25 L7.188,10.625 L8.562,10.625 L8.562,20.25 z M11.312,20.25 L9.938,20.25 L9.938,10.625 L11.312,10.625 L11.312,20.25 z M14.062,20.25 L12.688,20.25 L12.688,10.625 L14.062,10.625 L14.062,20.25 z M16.812,20.25 L15.438,20.25 L15.438,10.625 L16.812,10.625 L16.812,20.25 z M14.062,3.75 L14.062,2.392 L9.938,2.392 L9.938,3.75 L14.062,3.75 z M19.906,3.75 C20.473,3.75 20.938,4.214 20.938,4.781 L20.938,6.5 L3.062,6.5 L3.062,4.781 C3.062,4.214 3.527,3.75 4.094,3.75 L8.562,3.75 L8.562,2.031 C8.562,1.464 9.027,1 9.594,1 L14.406,1 C14.973,1 15.438,1.464 15.438,2.031 L15.438,3.75 L19.906,3.75 z" fill="#000000" id="bin"/>
  </g>
</svg>
