<?xml version="1.0" encoding="UTF-8"?>
<!DOCTYPE svg PUBLIC "-//W3C//DTD SVG 1.1//EN" "http://www.w3.org/Graphics/SVG/1.1/DTD/svg11.dtd">
<svg version="1.1" xmlns="http://www.w3.org/2000/svg" xmlns:xlink="http://www.w3.org/1999/xlink" x="0" y="0" width="144" height="144" viewBox="0, 0, 144, 144">
  <defs>
    <linearGradient id="Gradient_1" gradientUnits="userSpaceOnUse" x1="2691.19" y1="3870.105" x2="2682.732" y2="3201.091" gradientTransform="matrix(0.028, 0, 0, 0.028, 0, 0)">
      <stop offset="0" stop-color="#0A5486"/>
      <stop offset="1" stop-color="#0F7AC1"/>
    </linearGradient>
    <linearGradient id="Gradient_2" gradientUnits="userSpaceOnUse" x1="1753.823" y1="3422.146" x2="1261.715" y2="4090.391" gradientTransform="matrix(0.028, 0, 0, 0.028, 0, 0)">
      <stop offset="0" stop-color="#0A5486"/>
      <stop offset="1" stop-color="#0F7AC1"/>
    </linearGradient>
    <linearGradient id="Gradient_3" gradientUnits="userSpaceOnUse" x1="2661.658" y1="2285.058" x2="2657.682" y2="2194.806" gradientTransform="matrix(0.028, 0, 0, 0.028, 0, 0)">
      <stop offset="0" stop-color="#514F3B"/>
      <stop offset="1" stop-color="#322920"/>
    </linearGradient>
    <linearGradient id="Gradient_4" gradientUnits="userSpaceOnUse" x1="3155.65" y1="2317.21" x2="3174.151" y2="2231.05" gradientTransform="matrix(0.028, 0, 0, 0.028, 0, 0)">
      <stop offset="0" stop-color="#514F3B"/>
      <stop offset="1" stop-color="#322920"/>
    </linearGradient>
  </defs>
  <g id="Pesce_Briaco" display="none">
    <g>
      <path d="M44.575,27.811 C48.493,27.812 54.411,28.729 59.658,28.486 C63.524,28.293 67.413,28.206 71.262,28.364 L68.346,31.065 C65.868,33.062 65.409,35.722 65.405,39.876 L65.405,104.303 C65.53,107.786 66.147,110.938 68.935,113.337 L71.262,115.854 L68.97,116.049 C67.292,116.005 62.952,115.451 60.659,115.451 C56.657,115.451 51.158,116.015 49.74,116.177 C48.323,116.341 48.053,114.733 48.844,114.22 C52.761,111.69 55.904,106.152 55.904,100.78 L55.904,35.474 C55.904,33.727 55.842,31.988 48.534,31.988 C37.072,31.988 28.406,39.043 28.406,51.789 C28.406,64.54 37.323,70.953 48.158,70.953 C50.115,70.953 50.447,73.641 48.158,73.839 C33.901,75.087 18.403,66.222 18.403,49.624 C18.403,35.028 29.491,27.812 44.575,27.812 L44.575,27.811 z" fill="#555555"/>
      <path d="M94.096,111.745 C83.928,111.745 82.094,109.257 82.094,103.484 L82.094,36.778 C82.094,31.805 84.595,31.805 89.508,31.805 C99.18,31.805 106.846,37.176 106.846,46.959 C106.846,58.181 100.26,62.562 92.345,64.44 C90.443,64.892 90.175,67.563 92.427,67.646 C102.593,68.01 115.097,74.025 115.097,89.662 C115.097,106.26 104.262,111.745 94.096,111.745 M101.176,64.998 C100.263,64.905 99.809,64.126 100.844,63.957 C107.514,62.881 116.683,57.991 116.683,45.96 C116.683,32.411 103.927,28.179 93.678,27.951 C87.397,27.811 83.442,28.1 78.343,28.07 C74.342,28.046 70.857,28.266 69.86,28.324 C68.256,28.417 67.981,29.959 68.92,30.622 C71.546,32.476 72.591,35.654 72.591,39.822 L72.591,104.203 C72.369,108.474 71.525,111.321 68.92,113.381 C68.018,114.094 68.172,116.065 69.174,116.049 C74.689,115.961 70.682,115.87 77.339,115.879 C88.715,115.894 89.506,115.692 94.432,115.839 C106.643,116.203 125.597,108.904 125.597,90.143 C125.597,72.102 111.973,66.086 101.176,64.998" fill="#DA2C41"/>
    </g>
  </g>
  <g id="True_Wine" display="none">
    <path d="M116.875,30.5 C112.412,24.189 106.667,26 93,28 C79.289,30.007 67.729,29.75 54.375,34.25 C36.507,40.271 37.438,39.281 32.125,41.5 C10.238,50.641 36.812,55.188 52.125,53.75 C64.235,52.613 64.846,52.879 64.875,52.938 C66.781,57.808 70.43,61.082 66.273,64.822 C65.021,65.938 61.5,68.562 60.688,70.312 C58.801,74.375 63.288,75.254 67.125,76.375 C68.847,76.884 71.274,77.322 73.04,77.453 C79.52,77.939 68.15,84.701 68.068,84.759 C65.356,86.457 63.12,88.814 63.377,92.093 C63.896,98.802 89.252,98.09 76.29,105.481 C72.75,107.5 70.751,107.408 70.25,111.312 C69.625,116.188 78.967,118.443 81.019,118.991 C86.438,120.438 90.875,119.688 84.438,114.938 C71.905,105.69 91.628,108.198 89.62,99.651 C88.606,95.348 69.921,91.808 72.375,88.562 C74.312,86 95.514,78.021 80.893,73.185 C79.215,72.637 78.002,72.481 76.232,72.268 C69.125,71.404 75.425,64.854 78.25,62.5 C81.625,59.688 78.037,55.698 76.625,51.812 C89.824,51.982 106.155,49.668 116.312,43.25 C121.949,39.704 120.183,35.171 116.875,30.5 z" fill="#DA2C41"/>
  </g>
  <g id="wine" display="none">
    <path d="M100.756,26.765 L101.279,28.845 C101.279,28.845 102.745,34.698 104.277,41.017 L104.869,43.431 C106.258,49.084 107.568,54.424 107.578,58.02 C107.596,65.728 104.382,72.562 98.765,76.774 C96.436,78.517 92.462,80.534 86.955,82.773 C82.773,84.482 78.604,86.791 76.554,87.978 L76.553,104.157 C76.556,104.183 76.613,105.17 77.63,106.097 C78.868,106.761 84.628,108.36 88.095,109.323 C91.042,110.141 93.589,110.845 94.811,111.304 C96.91,112.091 98.061,113.311 98.235,114.93 C98.414,116.611 97.387,117.915 96.364,118.574 L95.683,119.015 L48.317,119.015 L47.638,118.576 C46.613,117.918 45.586,116.614 45.765,114.93 C45.939,113.311 47.093,112.091 49.194,111.304 C50.414,110.845 52.961,110.138 55.905,109.321 C59.372,108.36 65.133,106.761 66.363,106.097 C67.364,105.193 67.444,104.239 67.444,104.229 L67.444,87.978 C65.394,86.791 61.225,84.48 57.038,82.771 C51.513,80.523 47.538,78.504 45.23,76.772 C39.61,72.557 36.399,65.72 36.422,58.02 C36.427,54.506 37.557,49.886 38.987,44.036 C39.226,43.062 39.472,42.058 39.72,41.022 C41.242,34.698 42.721,28.843 42.721,28.843 L43.244,26.765 L100.756,26.765 z M96.462,32.266 L47.533,32.266 C46.972,34.516 46.029,38.319 45.068,42.309 C44.82,43.349 44.571,44.361 44.333,45.343 C43.041,50.619 41.929,55.175 41.924,58.035 C41.914,61.53 42.759,68.039 48.533,72.372 C49.86,73.369 52.774,75.096 59.113,77.676 C65.394,80.242 71.382,83.911 71.636,84.067 L71.997,84.29 L72.361,84.067 C72.615,83.911 78.606,80.242 84.879,77.679 C89.884,75.644 93.543,73.81 95.467,72.369 C101.236,68.044 102.084,61.53 102.076,58.035 C102.068,55.098 100.777,49.835 99.526,44.743 L98.932,42.314 C97.963,38.322 97.023,34.519 96.462,32.266 z" fill="#504F4A"/>
    <path d="M92.759,41.502 C88.746,41.635 84.966,41.955 81.263,43.703 C77.604,45.389 69.197,48.341 59.897,47.367 C54.711,46.827 51.182,46.022 48.863,45.312 L48.607,46.37 C47.428,51.18 46.321,55.708 46.319,58.04 C46.311,60.718 46.929,65.674 51.167,68.851 C51.905,69.405 54.316,70.976 60.766,73.6 C65.245,75.429 69.578,77.789 71.99,79.173 C74.381,77.797 78.683,75.452 83.208,73.602 C89.648,70.986 92.077,69.405 92.82,68.849 C97.054,65.674 97.674,60.715 97.671,58.043 C97.663,55.634 96.377,50.406 95.244,45.794 L94.647,43.362 C94.506,42.768 94.363,42.178 94.222,41.599 L92.759,41.502 z" fill="#DA2C41"/>
  </g>
  <g id="person">
    <g>
      <path d="M47.043,90.051 L47,89.467 C47,81.335 53.317,81.288 61.867,78.402 C63.214,81.722 67.242,84.131 72,84.131 C76.758,84.131 80.786,81.722 82.133,78.402 L82.929,78.665 C86.636,80.051 92.31,80.666 95.104,83.688 C96.567,85.27 96.975,87.377 97,89.467 L96.957,90.051 C95.576,96.956 77.068,97.947 72,98.037 C65.328,97.885 58.329,97.56 52.122,94.823 C50.147,93.952 47.388,92.472 47.049,90.051 L47.043,90.051 z" fill="#DA2C41"/>
      <path d="M70.068,45.963 C71.017,46.726 72.068,47.676 72.224,48.948 C72.632,48.299 72.751,46.184 72.751,46.184 C74.531,47.338 74.458,49.356 74.458,49.356 C75.107,49.213 76.454,46.737 76.453,46.737 C77.628,48.476 77.065,49.559 76.901,49.808 C77.914,48.428 80.396,48.58 80.396,48.58 C79.025,49.678 79.458,51.472 79.458,51.472 C80.66,50.559 82.342,50.991 82.342,50.991 C81.213,51.544 81.164,53.106 81.164,53.106 C82.271,52.12 84.242,53.683 84.24,53.683 C82.919,53.78 82.367,55.028 82.367,55.028 C83.232,54.38 85.058,56.231 85.058,56.231 C84.287,56.142 83.569,56.627 83.254,56.88 C83.299,56.928 83.342,56.977 83.383,57.024 C85.299,57.184 85.299,60.437 85.299,60.437 C85.215,60.26 84.903,59.948 84.55,59.631 L84.55,61.194 C85.335,61.681 85.815,63.855 85.653,66.422 C85.49,68.969 84.231,71.016 83.279,71.417 L83.279,74.33 C83.279,76.385 72,82.32 72,82.32 C72,82.32 60.721,76.385 60.721,74.33 L60.721,71.417 C59.769,71.016 58.51,68.969 58.347,66.422 C58.185,63.855 58.665,61.681 59.45,61.194 L59.45,59.631 C59.097,59.948 58.785,60.26 58.701,60.437 C58.701,60.437 58.701,57.184 60.617,57.024 C60.658,56.977 60.701,56.928 60.744,56.88 C60.431,56.627 59.713,56.142 58.942,56.231 C58.942,56.231 60.768,54.38 61.633,55.028 C61.633,55.028 61.081,53.78 59.758,53.683 C59.76,53.683 61.731,52.12 62.836,53.106 C62.836,53.106 62.787,51.544 61.658,50.991 C61.658,50.991 63.34,50.559 64.542,51.472 C64.542,51.472 64.975,49.678 63.604,48.58 C63.604,48.58 66.086,48.428 67.099,49.808 C66.935,49.559 66.374,48.476 67.546,46.737 C67.547,46.737 68.893,49.213 69.542,49.356 C69.812,48.242 69.972,47.105 70.068,45.963 z M77.026,56.278 C75.201,56.249 73.44,57.026 72,58.116 C72,58.116 62.396,50.606 62.396,65.878 L62.085,65.356 C61.6,64.544 60.651,63.255 60.169,63.255 C60.161,63.255 60.153,63.255 60.146,63.256 C60.114,63.312 60.021,63.555 59.992,64.495 C59.971,65.181 59.993,65.905 60.019,66.316 C60.076,67.205 60.31,68.108 60.676,68.856 C61.037,69.591 61.351,69.848 61.403,69.887 L62.228,70.234 L62.228,68.888 L64.181,68.888 L64.181,74.06 C66.037,75.537 68.732,76.38 69.154,76.597 L74.846,76.597 C75.268,76.38 77.963,75.537 79.819,74.06 L79.819,68.888 L81.772,68.888 L81.772,70.234 L82.597,69.887 C82.649,69.848 82.964,69.591 83.324,68.856 C83.69,68.108 83.924,67.205 83.981,66.316 C84.007,65.905 84.029,65.181 84.008,64.495 C83.979,63.555 83.886,63.312 83.854,63.256 C83.847,63.255 83.839,63.255 83.831,63.255 C83.349,63.255 82.4,64.544 81.915,65.356 L81.603,65.878 C81.561,63.063 81.396,58.009 78.351,56.605 C77.922,56.406 77.492,56.334 77.026,56.278 z" fill="#444444"/>
      <path d="M122.078,42.843 C122.078,37.314 117.591,32.827 112.062,32.827 L31.938,32.827 C26.409,32.827 21.922,37.314 21.922,42.843 L21.922,102.937 C21.922,108.465 26.409,112.952 31.938,112.952 L112.062,112.952 C117.591,112.952 122.078,108.465 122.078,102.937 L122.078,42.843 z M112.062,102.937 L31.938,102.937 L31.938,42.843 L112.078,42.843 L112.062,102.937 z" fill="#444444"/>
    </g>
  </g>
  <g id="image" display="none">
    <g>
      <path d="M54.5,70.375 C48.494,70.375 43.625,65.506 43.625,59.5 C43.625,53.494 48.494,48.625 54.5,48.625 C60.506,48.625 65.375,53.494 65.375,59.5 C65.375,65.506 60.506,70.375 54.5,70.375 z" fill="#DA2C41"/>
      <path d="M54.473,51.964 C58.614,51.964 61.984,55.334 61.984,59.475 C61.984,63.617 58.614,66.987 54.473,66.987 C50.331,66.987 46.961,63.617 46.961,59.475 C46.961,55.334 50.331,51.964 54.473,51.964 z M54.473,46.956 C47.557,46.956 41.953,52.56 41.953,59.475 C41.953,66.391 47.557,71.995 54.473,71.995 C61.388,71.995 66.992,66.391 66.992,59.475 C66.992,52.56 61.388,46.956 54.473,46.956 z" fill="#444444"/>
      <path d="M93.25,70.5 C95.72,70.813 100.498,79.683 103.291,93.156 L40.769,93.156 C43.151,86.815 47.193,80.375 50.25,80.375 C54.674,80.375 56.527,80.434 58.75,81.875 C61.203,83.457 63.834,85.625 69.125,85.625 C75.371,85.625 79.223,81.04 83.125,76.25 C86.566,72.037 89.792,70.375 93.25,70.375" fill="#DA2C41"/>
      <path d="M92.031,71.995 C94.285,72.25 98.391,81.029 100.94,92.031 L43.891,92.031 C46.065,86.853 49.174,82.011 51.964,82.011 C56,82.011 57.598,82.937 59.626,84.114 C61.864,85.406 64.664,87.018 69.491,87.018 C75.19,87.018 79.216,82.587 82.777,78.675 C85.917,75.235 88.876,71.995 92.031,71.995 z M92.031,66.987 C82.016,66.987 77.008,82.011 69.496,82.011 C61.984,82.011 61.989,77.003 51.969,77.003 C41.953,77.003 36.94,97.034 36.94,97.034 L107.055,97.034 C107.055,97.034 102.047,66.987 92.031,66.987 z" fill="#444444"/>
      <path d="M122.078,41.953 C122.078,36.424 117.591,31.938 112.062,31.938 L31.938,31.938 C26.409,31.938 21.922,36.424 21.922,41.953 L21.922,102.047 C21.922,107.576 26.409,112.062 31.938,112.062 L112.062,112.062 C117.591,112.062 122.078,107.576 122.078,102.047 L122.078,41.953 z M112.062,102.047 L31.938,102.047 L31.938,41.953 L112.078,41.953 L112.062,102.047 z" fill="#444444"/>
    </g>
  </g>
  <g id="dima" display="none">
    <g>
      <path d="M59.354,86.504 C61.839,85.191 64.779,85.985 65.473,83.167 C65.694,82.267 65.915,81.543 66.277,80.691 C67.046,78.891 67.923,79.112 69.528,79.759 C72.468,80.944 68.606,80.214 72.151,81.303 C75.795,82.42 79.586,83.147 83.301,83.993 C84.188,84.198 85.072,84.403 85.959,84.608 L86.34,84.694 L89.274,87.913 C96.377,92.031 107.22,98.66 109.859,103.633 C112.187,108.017 113.839,113.285 115.322,118.409 L34.686,118.409 C34.856,113.231 35.029,108.052 35.198,102.874 C35.227,102.022 35.438,95.038 35.525,94.814 C37.978,91.621 48.357,88.688 52.526,86.872 C53.839,86.302 58.044,87.09 59.347,86.497 z" fill="url(#Gradient_1)"/>
      <path d="M91.182,88.854 C98.721,92.585 109.036,97.898 111.36,102.426 C113.89,107.524 115.485,112.952 117,118.409 L112.424,118.409 C112.302,118.111 112.183,117.82 112.075,117.535 C111.149,115.104 110.268,112.661 109.426,110.201 C105.795,99.252 101.382,101.074 93.392,95.365 C89.6,92.588 89.578,89.696 91.182,88.854 z" fill="#0F7AC1"/>
      <path d="M69.589,102.983 C73.624,105.023 82.123,110.108 85.719,118.409 L61.829,118.409 C60.817,112.654 57.554,105.27 55.437,100.639 C53.858,97.187 63.818,100.062 69.589,102.98 z" fill="#0F7AC1"/>
      <path d="M105.446,118.412 C104.008,113.666 102.544,110.666 102.692,107.751 C102.989,101.83 98.557,98.951 94.833,100.68 C90.872,102.522 88.175,105.141 89.479,116.801 C89.52,117.163 89.549,117.724 89.578,118.412 L105.446,118.412 z" fill="#0F7AC1"/>
      <path d="M61.362,82.76 C64.372,81.181 63.52,83.243 64.183,79.923 C64.731,77.169 65.221,80.342 68.208,80.864 C69.47,81.085 68.401,77.646 69.115,78.779 C69.848,79.942 70.802,84.111 70.799,85.562 C70.796,86.612 70.626,87.73 70.482,88.771 C70.165,91.013 76.285,98.477 77.908,100.367 C78.072,100.556 78.232,100.745 78.392,100.937 C81.844,105.087 88.761,113.176 88.592,118.409 L86.436,118.409 C84.518,115.472 81.063,109.106 74.757,103.979 C66.924,97.978 55.053,91.467 45.026,91.173 C43.829,91.147 42.631,91.189 41.433,91.166 C45.407,89.238 49.856,88.114 54.012,86.206 C54.819,85.834 60.548,83.128 61.359,82.757 z" fill="#0B5E95"/>
      <g>
        <path d="M57.051,108.258 C56.994,108.133 57.048,107.989 57.173,107.931 C57.298,107.873 57.442,107.928 57.5,108.053 C58.499,110.217 59.351,112.715 59.786,115.408 C59.943,116.385 60.049,117.391 60.084,118.412 L59.591,118.412 C59.556,117.416 59.453,116.44 59.299,115.485 C58.87,112.84 58.034,110.387 57.051,108.258 z" fill="#0B629C"/>
        <path d="M57.551,108.758 C57.494,108.633 57.548,108.489 57.673,108.431 C57.798,108.373 57.942,108.428 58,108.553 C58.999,110.717 59.851,113.215 60.286,115.908 C60.443,116.885 60.549,117.891 60.584,118.912 L60.091,118.912 C60.056,117.916 59.953,116.94 59.799,115.985 C59.37,113.34 58.534,110.887 57.551,108.758 z" fill-opacity="0" stroke="#0B629C" stroke-width="0.216"/>
      </g>
      <path d="M104.815,113.147 C104.764,113.019 104.824,112.878 104.953,112.827 C105.081,112.776 105.222,112.837 105.273,112.965 C105.788,114.255 106.243,115.959 106.631,117.896 C106.666,118.066 106.698,118.239 106.73,118.412 L106.227,118.412 C106.201,118.271 106.173,118.13 106.144,117.993 C105.763,116.084 105.318,114.412 104.812,113.147 z" fill="#0B629C"/>
      <g>
        <path d="M62.005,118.412 C62.598,118.319 63.203,118.243 63.828,118.198 C69.051,117.845 74.674,117.708 79.91,117.785 C81.956,117.813 83.849,117.951 85.802,118.412 L62.005,118.412 z" fill="#0A5486" fill-opacity="0.302"/>
        <path d="M43.201,115.015 C47.912,112.962 51.178,113.228 55.93,112.158 C60.724,111.111 66.047,111.063 70.969,110.797 C74.648,110.598 78.623,110.816 82.312,111.015 C83.035,111.053 83.846,111.095 84.553,111.252 C87.099,111.937 87.192,112.805 90.084,111.985 C92.284,111.415 93.911,111.71 96.136,111.844 C99.675,112.059 100.866,112.542 104.155,113.42 C105.25,113.711 106.243,113.82 107.37,113.868 C109.519,113.884 111.088,114.118 113.154,114.701 C113.897,114.912 115.876,116.315 116.59,116.616 L116.632,117.586 C115.162,116.251 110.07,114.698 107.556,114.704 C104.226,114.525 102.704,113.814 99.653,113.151 C97.824,112.754 94.945,112.661 92.976,112.59 C91.82,112.549 91.115,112.744 90.023,113.096 C87.067,114.07 86.769,112.914 84.195,112.18 C81.428,111.623 73.307,111.601 70.36,111.771 C68.756,111.863 67.161,111.976 65.554,112.052 C64.202,112.116 62.854,112.193 61.506,112.286 C58.806,112.472 57.352,112.898 54.794,113.429 C53.035,113.794 51.22,113.961 49.436,114.153 C47.092,114.403 45.689,114.845 43.547,115.834 C43.432,115.562 43.316,115.29 43.198,115.015 z" fill="#0A5486" fill-opacity="0.302"/>
        <path d="M43.303,115.956 C48.021,113.846 51.553,114.15 56.337,113.016 C60.933,111.969 65.483,112.132 70.149,111.803 C73.588,111.559 76.701,111.716 80.124,111.87 C81.306,111.921 83.077,111.924 84.204,112.19 C86.744,112.923 87.083,114.073 89.997,113.119 C92.412,112.341 93.437,112.629 95.871,112.747 C99.438,112.923 100.671,113.596 103.915,114.316 C104.37,114.419 104.805,114.493 105.266,114.566 C106.192,114.704 107.14,114.72 108.075,114.746 C110.144,114.803 113.147,115.62 115.069,116.414 L114.582,117.516 C114.303,117.407 113.986,117.295 113.631,117.179 C111.136,116.385 109.429,115.991 106.816,115.754 C103.518,115.386 100.972,114.265 97.584,114.022 C95.864,113.897 92.223,113.631 90.641,114.105 C89.879,114.332 89.52,114.444 88.707,114.566 C86.459,114.832 85.098,113.311 82.782,113.215 C78.334,113.029 74.712,112.718 70.203,112.997 C67.328,113.176 64.446,113.247 61.567,113.407 C58.813,113.567 57.49,113.98 54.896,114.537 C53.148,114.912 51.396,115.063 49.622,115.239 C47.319,115.466 45.801,115.927 43.691,116.891 C43.563,116.58 43.435,116.27 43.303,115.959 z" fill="#3C93CE" fill-opacity="0.302"/>
        <path d="M42.961,117.25 C48.312,114.726 50.352,115.613 55.476,114.387 L55.873,114.291 C60.151,113.228 62.691,113.401 66.982,113.208 C70.267,113.058 73.284,112.747 76.599,112.895 C78.661,112.997 81.047,113.055 83.055,113.228 C83.359,113.253 83.612,113.282 83.91,113.343 C86.289,113.926 86.968,115.088 89.744,114.326 C92.476,113.58 92.889,113.769 95.653,113.891 C98.826,114.031 100.229,114.365 103.258,115.146 C104.613,115.495 105.913,115.726 107.303,115.87 C108.296,115.953 109.106,116.065 110.086,116.263 C111.69,116.603 113.397,117.016 114.909,117.653 L114.573,118.415 L111.722,118.415 C108.843,117.599 105.689,117.045 102.877,116.404 C99.531,115.642 95.861,115.658 92.434,115.533 C90.772,115.469 89.453,115.847 87.836,115.809 C86.014,115.655 84.771,115.027 82.846,114.944 C78.792,114.771 74.962,114.438 70.905,114.691 C67.763,114.886 64.647,114.941 61.506,115.168 C59.322,115.328 57.339,115.828 55.2,116.222 C53.224,116.574 51.226,116.715 49.228,117.045 C47.816,117.288 46.426,117.676 45.094,118.21 C44.933,118.278 44.777,118.345 44.616,118.415 L43.422,118.415 C43.265,118.028 43.111,117.644 42.951,117.256 z" fill="#0A5486" fill-opacity="0.302"/>
        <path d="M42.929,108.322 C50.922,105.225 59.969,104.399 68.474,103.954 C71.484,103.797 76.938,103.768 79.798,104.415 C80.173,104.501 80.544,104.594 80.919,104.69 C82.494,105.081 83.051,105.186 84.614,104.687 C87.692,103.761 87.893,105.625 91.093,105.267 C93.306,105.02 93.664,104.786 96.018,105.065 C96.248,105.09 96.476,105.119 96.706,105.148 L97.171,105.202 C99.585,105.539 101.379,105.782 103.739,106.464 C105.949,107.101 106.65,106.839 108.773,107.034 C109.74,107.124 110.646,107.338 111.585,107.575 C112.353,107.771 113.09,107.989 113.839,108.245 C113.964,108.584 114.086,108.924 114.207,109.263 C112.392,108.613 109.593,107.828 107.697,107.828 C105.138,107.825 105.071,107.672 102.756,107.021 C100.853,106.487 98.308,106.326 96.287,106.07 C93.366,105.712 93.53,105.974 90.779,106.429 C88.54,106.797 88.438,105.865 86.616,105.494 C85.838,105.334 85.223,105.529 84.48,105.728 C81.834,106.455 80.893,105.436 78.318,105.065 C76.073,104.777 72.154,104.754 69.848,104.821 C66.959,104.905 63.581,105.202 60.686,105.475 C54.733,106.032 48.895,107.076 43.275,109.177 L42.922,108.322 z" fill="#0A5486" fill-opacity="0.302"/>
        <path d="M43.031,109.279 C51.063,106.205 59.687,105.414 68.205,104.898 C71.28,104.713 76.72,104.7 79.67,105.369 C80.169,105.481 80.669,105.606 81.165,105.728 C82.84,106.093 83.308,106.038 84.931,105.542 C87.413,104.783 87.986,106.765 90.804,106.352 C93.165,106.006 93.286,105.68 95.81,105.955 L96.181,105.997 C97.51,106.15 98.83,106.323 100.152,106.515 C101.814,106.762 102.682,107.053 104.245,107.527 C106.086,108.091 108.008,107.71 109.974,108.104 L110.233,108.155 C110.595,108.232 110.957,108.322 111.319,108.408 C112.308,108.648 113.25,108.917 114.211,109.257 C114.31,109.538 114.406,109.817 114.502,110.099 L114.288,110.582 C114.009,110.474 113.692,110.361 113.336,110.246 C110.784,109.417 109.41,109.145 106.73,108.994 C104.488,108.776 102.669,107.924 100.418,107.656 C98.903,107.505 97.389,107.396 95.874,107.239 C93.968,107.041 93.575,107.018 91.579,107.425 C88.185,108.117 87.259,106.282 85.21,106.647 C84.672,106.743 84.153,106.858 83.609,106.945 C81.684,107.214 79.526,106.342 77.486,106.173 C73.214,105.865 69.22,106 64.964,106.336 C57.272,106.941 50.775,107.559 43.416,110.205 C43.287,109.894 43.159,109.58 43.028,109.266 z" fill="#3C93CE" fill-opacity="0.302"/>
        <path d="M42.682,110.512 C50.765,107.39 59.463,106.666 68.035,106.115 C71.468,105.894 76.906,105.92 80.24,106.637 L80.65,106.727 C82.831,107.185 83.103,106.977 85.152,106.659 C87.506,106.378 87.948,107.915 91.227,107.47 C93.446,107.169 93.664,106.999 95.999,107.262 C96.229,107.287 96.46,107.313 96.694,107.342 C96.931,107.367 97.164,107.396 97.401,107.422 C99.947,107.694 101.622,107.796 104.126,108.549 C105.647,109.023 106.397,109 107.94,109.084 C108.824,109.141 109.602,109.302 110.464,109.497 C111.79,109.798 113.372,110.189 114.621,110.73 L115.175,112.341 C112.779,111.354 109.692,110.999 107.146,110.746 C104.427,110.403 102.624,109.394 99.653,109.189 C97.866,109.068 96.143,108.978 94.346,108.84 C93.264,108.757 92.396,108.789 91.317,108.853 C89.136,108.997 88.774,108.671 86.766,108.318 C85.095,108.024 83.042,108.341 81.265,108.206 L80.759,108.158 C76.144,107.684 71.142,107.566 66.521,107.966 C65.534,108.053 64.551,108.139 63.562,108.21 C58.643,108.565 53.91,109.225 49.084,110.246 C48.113,110.458 47.178,110.707 46.224,110.983 C45.215,111.277 44.299,111.607 43.332,112.02 C43.114,111.518 42.9,111.018 42.689,110.512 z" fill="#0A5486" fill-opacity="0.302"/>
        <path d="M42.583,100.969 C50.48,98.077 59.421,97.004 67.802,96.924 C71.094,96.908 71.452,98.016 75.279,97.171 C77.521,96.678 82.008,97.072 84.422,97.212 C87.56,97.395 90.68,97.651 93.808,97.981 C96.236,98.24 98.628,98.782 101.014,99.288 C102.109,99.518 103.153,99.656 104.274,99.678 C106.221,99.694 107.018,99.858 108.898,100.264 C109.253,100.341 109.609,100.421 109.964,100.504 C110.317,100.886 110.624,101.263 110.883,101.638 C108.914,101.151 106.791,100.601 104.76,100.655 C101.728,100.722 100.45,100.085 97.629,99.528 C95.819,99.169 94.372,98.983 92.547,98.807 C89.431,98.509 78.811,97.558 76.278,97.978 C73.896,98.372 73.758,98.858 71.171,98.369 C68.18,97.802 67.462,97.859 64.458,98.016 C57.003,98.417 49.99,99.24 42.935,101.83 L42.589,100.969 z" fill="#0A5486" fill-opacity="0.302"/>
        <path d="M42.689,101.926 C50.221,99.102 59.636,97.962 67.664,97.882 C70.962,97.856 71.395,99.156 75.225,98.205 C76.916,97.786 77.483,97.863 79.193,97.923 C83.983,98.084 88.777,98.397 93.546,98.903 L93.779,98.929 C96.088,99.176 98.317,99.672 100.565,100.216 C101.827,100.521 102.925,100.684 104.232,100.671 C106.298,100.62 106.925,100.761 108.923,101.19 C109.58,101.331 110.233,101.478 110.887,101.641 C111.072,101.907 111.232,102.17 111.367,102.429 C111.479,102.657 111.591,102.884 111.7,103.114 C108.965,102.355 107.124,101.898 104.254,101.85 C101.981,101.814 100.511,101.35 98.34,100.886 C96.05,100.409 94.273,100.194 91.96,99.983 L91.759,99.963 C88.768,99.685 85.774,99.467 82.773,99.31 C79.961,99.156 77.735,98.894 74.937,99.409 C72.167,99.919 71.824,99.531 69.166,99.188 C66.322,98.839 58.502,99.611 55.46,100.015 C51.242,100.575 47.079,101.417 43.076,102.881 L42.695,101.93 z" fill="#3C93CE" fill-opacity="0.302"/>
        <path d="M42.34,103.162 C49.631,100.303 59.869,99.198 67.706,99.092 C70.783,99.118 71.696,100.091 75.065,99.4 C76.97,99.009 77.748,99.089 79.644,99.163 C84.47,99.332 89.293,99.656 94.093,100.207 C96.383,100.473 98.365,100.905 100.591,101.44 C101.92,101.744 102.804,101.878 104.174,101.891 C106.205,101.856 106.98,102.038 108.933,102.461 C109.862,102.663 110.784,102.881 111.703,103.131 C112.03,103.816 112.344,104.508 112.638,105.206 C109.151,104.056 106.922,103.809 103.339,103.403 C101.106,103.15 99.015,102.602 96.825,102.253 L96.364,102.183 C93.844,101.83 91.009,101.616 88.457,101.427 C85.232,101.183 81.982,101.036 78.747,100.873 C76.852,100.786 75.824,100.87 73.96,100.998 C71.894,101.142 69.781,100.722 67.574,100.786 C59.786,101.023 50.237,101.917 42.98,104.761 L42.34,103.162 z" fill="#0A5486" fill-opacity="0.302"/>
        <path d="M40.658,95.31 C46.676,93.562 51.341,92.566 57.624,92.182 C58.56,92.127 59.463,92.06 60.398,91.961 C63.507,91.637 67.049,91.515 70.203,91.362 C73.941,91.176 78.382,91.602 82.184,91.81 C87.24,92.089 92.255,92.54 97.276,93.19 C98.32,93.328 99.326,93.469 100.296,93.616 C100.456,93.706 100.617,93.799 100.777,93.892 C99.733,93.731 98.641,93.571 97.507,93.421 C90.007,92.434 82.19,91.973 74.626,91.656 C70.828,91.496 66.751,91.871 62.934,92.108 C60.459,92.268 57.929,92.543 55.44,92.745 C54.099,92.854 52.84,92.995 51.511,93.21 C47.764,93.844 44.543,94.641 40.921,95.784 C40.834,95.627 40.745,95.474 40.658,95.317 z" fill="#0A5486" fill-opacity="0.302"/>
        <path d="M40.758,95.832 C47.079,93.815 51.229,93.037 57.839,92.54 C60.327,92.354 62.72,92.05 65.227,91.967 C68.746,91.848 71.44,91.467 75.065,91.669 C80.025,91.941 85.05,92.134 89.988,92.575 C92.505,92.806 95.006,93.081 97.51,93.414 C98.644,93.568 99.736,93.725 100.78,93.885 C101.587,94.35 102.381,94.82 103.172,95.307 C102.394,95.173 101.58,95.041 100.735,94.913 C99.573,94.724 98.413,94.551 97.248,94.398 C90.058,93.462 82.414,92.937 75.167,92.697 C71.315,92.569 67.398,92.912 63.536,93.094 C62.322,93.152 61.157,93.238 59.949,93.37 C57.199,93.667 54.698,93.68 51.902,94.1 C48.162,94.66 44.729,95.41 41.116,96.534 C40.994,96.303 40.876,96.069 40.758,95.836 z" fill="#3C93CE" fill-opacity="0.302"/>
        <path d="M40.396,96.771 C45.965,94.945 51.178,93.936 57.032,93.587 C59.988,93.405 62.899,93.085 65.864,92.992 C69.153,92.905 71.805,92.563 75.19,92.72 C82.584,93.065 89.978,93.469 97.321,94.423 C99.278,94.686 101.222,94.974 103.169,95.304 C104.216,95.951 105.212,96.604 106.134,97.261 C102.829,96.614 99.473,96.169 96.133,95.704 C91.691,95.083 86.689,94.734 82.203,94.497 C77.018,94.237 72.56,94.173 67.363,94.375 C65.134,94.462 62.982,94.458 60.756,94.679 C58.172,94.977 55.713,95.006 53.116,95.355 C48.885,95.938 45.103,96.655 41.033,97.991 C40.818,97.584 40.604,97.18 40.396,96.771 z" fill="#0A5486" fill-opacity="0.302"/>
        <path d="M36.252,94.266 C45.327,90.548 52.504,88.544 62.169,86.984 C62.691,86.901 63.21,86.814 63.731,86.725 C69.124,85.886 74.213,86.558 79.606,86.728 C82.613,86.814 85.607,86.968 88.608,87.183 L88.726,87.314 C83.394,86.942 77.982,86.824 72.618,86.52 C64.321,86.142 52.309,88.643 44.517,91.522 C42.327,92.332 40.149,93.174 37.955,93.981 C37.542,94.132 36.956,94.366 36.53,94.455 C36.438,94.391 36.345,94.33 36.252,94.266 z" fill="#0A5486" fill-opacity="0.302"/>
        <path d="M36.438,94.574 C45.289,90.776 52.251,88.777 61.688,87.256 C62.454,87.131 63.219,87.007 63.984,86.878 C69.393,86.055 74.498,86.689 79.907,86.862 C82.853,86.949 85.786,87.103 88.729,87.314 L89.277,87.916 L89.463,88.022 C83.971,87.602 78.235,87.458 72.711,87.231 C70.133,87.125 67.949,87.205 65.378,87.5 C60.76,88.057 57.154,88.528 52.597,89.594 C48.226,90.616 45.142,91.813 40.994,93.347 C39.573,93.863 38.308,94.324 36.911,94.923 C36.751,94.808 36.598,94.695 36.441,94.574 z" fill="#3C93CE" fill-opacity="0.302"/>
        <path d="M36.185,95.24 C45.564,91.118 53.298,88.97 63.405,87.705 C64.045,87.625 64.683,87.548 65.323,87.471 L65.701,87.426 C70.677,86.878 75.84,87.368 80.855,87.545 C83.602,87.641 86.343,87.791 89.085,88.002 L89.475,88.031 C89.978,88.323 90.497,88.627 91.032,88.941 C91.08,88.909 91.128,88.88 91.179,88.854 C91.368,88.947 91.56,89.043 91.755,89.139 C85.626,88.595 79.212,88.316 73.05,88.102 C64.84,87.865 53.087,89.831 45.299,92.515 C42.839,93.363 40.441,94.308 38.045,95.329 C37.68,95.486 37.318,95.646 36.956,95.81 C36.694,95.624 36.438,95.438 36.181,95.24 z" fill="#0A5486" fill-opacity="0.302"/>
      </g>
      <g>
        <path d="M75.776,94.052 C78.152,93.767 80.525,93.482 82.901,93.187 C84.569,92.979 86.238,92.771 87.906,92.563 L88.854,118.412 L88.563,118.412 L85.139,109.173 C82.072,105.641 78.824,102.042 75.843,98.461 C75.183,97.67 74.546,96.857 73.909,96.047 C74.536,95.387 75.158,94.724 75.772,94.052 z" fill="#B2B2B2"/>
        <path d="M75.776,94.052 C76.041,94.113 81.764,95.259 80.525,95.964 C79.654,96.46 78.943,95.634 77.678,96.851 C76.804,97.693 75.878,97.398 78.264,97.658 C79.023,97.741 79.788,97.789 80.55,97.84 C82.843,97.991 84.845,97.76 83.785,99.96 C82.891,101.811 84.432,100.735 85.024,102.259 C85.373,103.153 86.222,107.742 86.328,108.824 C86.478,110.381 87.861,112.507 87.765,113.826 C87.503,117.423 88.435,115.546 88.883,118.409 L88.742,118.409 L87.42,114.704 L83.442,106.919 C81.044,103.156 76.976,102.621 74.869,98.173 C74.536,97.472 74.235,96.751 73.912,96.044 C74.54,95.384 75.161,94.721 75.776,94.049 z" fill="#FFFFFF"/>
        <path d="M77.607,78.402 C82.744,79.138 87.602,82.251 87.938,87.865 C87.951,88.259 87.929,88.572 87.897,88.963 C86.939,96.028 77.585,99.425 71.917,95.547 C68.673,93.328 67.369,89.376 66.29,85.793 C65.807,84.285 63.837,79.049 66.098,78.261 C67.324,77.835 70.159,78.437 71.837,78.309 C74.024,78.142 75.433,78.19 77.611,78.405 z" fill="#7F5229"/>
        <path d="M84.601,81.345 L90.577,82.376 C93.395,84.249 98.791,85.972 100.117,89.953 C93.011,93.526 91.099,101.199 89.921,109.5 C89.491,112.517 89.466,115.508 89.251,118.409 L88.646,118.409 C88.156,108.347 87.157,95.81 85.011,90.894 C83.529,87.49 84.39,85.357 84.601,81.342 z" fill="#349AD0"/>
        <path d="M84.601,81.345 L90.577,82.376 C91.362,82.869 92.281,83.369 93.267,83.894 C85.505,91.391 88.889,111.024 89.181,118.409 L88.563,118.409 C87.845,108.437 86.475,96.06 84.393,91.122 C82.959,87.717 84.134,85.453 84.601,81.345 z" fill="#0B5E95"/>
        <path d="M62.079,77.479 C59.885,80.387 60.097,80.896 61.989,83.727 C64.138,86.946 67.26,89.722 69.06,93.177 C69.268,93.597 69.38,93.901 69.518,94.343 C70.018,96.201 69.281,95.137 71.155,96.524 C76.022,100.136 80.438,104.773 84.163,109.548 C86.251,112.235 87.471,115.04 88.313,117.407 C86.801,108.997 82.734,103.803 77.713,97.261 C74.392,92.934 71.747,88.954 68.039,84.829 C65.819,82.363 64.141,80.118 62.079,77.476 z M88.8,118.409 L88.275,118.409 C87.544,115.86 85.911,112.962 83.577,109.958 C79.532,104.796 73.684,99.614 68.292,96.012 C68.285,96.005 67.847,93.927 67.805,93.789 C65.871,88.816 61.743,86.206 60.286,81.175 C59.863,79.708 60.939,78.299 61.945,77.29 C62.447,76.784 62.841,77.844 63.232,78.373 C64.913,80.643 66.409,82.53 68.285,84.608 C71.59,88.268 73.982,91.752 76.906,95.643 C77.774,96.799 78.677,97.895 79.561,99.035 C84.073,104.895 87.829,110.938 88.8,118.412 z" fill="#084075"/>
        <path d="M61.986,76.65 C61.109,77.787 59.837,79.936 60.545,81.37 C61.823,83.964 65.128,87.276 66.902,89.86 C68.074,91.621 68.73,93.133 69.115,95.221 C69.191,95.701 69.678,95.794 70.191,96.172 C75.702,100.239 82.536,106.839 86.036,112.712 C87.138,114.56 87.961,116.334 88.54,118.412 L88.851,118.412 C87.765,107.611 81.931,101.491 75.622,93.35 C73.495,90.603 71.459,88.006 69.127,85.421 C67.373,83.516 66.284,82.219 64.718,80.131 C63.818,78.93 62.921,77.816 61.986,76.65 z" fill="#349AD0"/>
        <path d="M62.716,76.394 C60.503,77.246 59.62,79.772 60.721,81.684 C61.893,83.714 63.222,86.027 65.246,87.307 C70.207,89.748 71.962,90.654 76.163,94.359 C77.809,95.81 76.791,94.846 76.038,93.853 C73.764,90.862 71.811,88.419 69.259,85.636 C67.395,83.622 66.322,82.334 64.686,80.109 C63.799,78.901 63.667,77.543 62.716,76.387 z" fill="#0B5E95"/>
        <path d="M84.124,109.737 C80.096,104.482 74.962,99.608 69.448,95.925 C68.577,95.342 69.009,96.194 68.561,94.433 C66.729,88.137 62.441,86.452 60.545,81.646 C58.992,77.71 62.159,75.481 65.845,76.375 C68.554,77.031 69.352,77.925 72.487,78.046 C75.106,78.11 77.636,78.427 80.211,78.901 C86.343,80.096 93.578,82.478 98.17,86.885 C99.031,87.733 99.752,88.637 100.299,89.594 C100.402,89.793 100.508,89.975 100.21,90.164 C97.248,91.179 93.36,93.959 90.865,104.431 C89.824,94.446 98.208,89.12 98.067,88.707 C97.914,88.259 97.866,87.791 97.709,87.356 C93.209,83.045 86.087,80.72 80.086,79.551 C77.262,79.081 74.687,78.962 71.875,78.68 C68.935,78.386 66.819,76.778 64.343,76.64 C61.298,76.471 59.818,78.597 61.125,81.412 C63.043,85.549 66.991,88.441 69.38,92.069 C70.962,94.724 70.344,94.077 72.733,96.092 C77.207,99.861 81.991,104.165 84.118,109.743 z" fill="#4DB1F2"/>
        <path d="M100.207,90.18 C96.002,91.781 93.43,96.341 91.82,101.773 C90.234,107.127 89.588,113.327 89.248,118.409 L88.761,118.409 C89.104,113.295 89.751,107.044 91.352,101.635 C93.001,96.069 95.659,91.391 100.03,89.725 L100.203,90.18 z" fill="#084075"/>
      </g>
      <path d="M57.288,118.412 C56.926,117.829 56.456,117.202 55.847,116.5 C55.444,116.036 53.112,104.222 52.302,102.98 C48.507,97.315 43.182,91.195 35.733,94.708 C33.421,95.931 32.399,96.745 30.961,99.012 C27.593,104.315 27.016,112.276 27,118.415 L57.285,118.415 z" fill="url(#Gradient_2)"/>
      <path d="M55.905,118.412 C55.834,118.316 55.758,118.217 55.674,118.111 C55.373,117.727 52.757,104.93 51.662,102.785 C48.863,97.93 43.047,93.392 37.152,94.679 C33.226,95.65 32.454,99.608 31.919,103.06 C31.189,107.934 31.355,113.477 31.496,118.412 L55.902,118.412 z" fill="#0F7AC1"/>
      <g>
        <path d="M28.88,103.576 C30.42,102.57 32.23,101.568 34.119,100.87 C37.751,99.566 43.845,98.33 47.787,98.378 C48.088,98.381 48.222,98.375 48.498,98.474 C49.58,99.537 49.426,99.192 47.764,99.204 C46.163,99.217 42.375,99.605 38.682,100.501 C34.968,101.401 31.362,102.99 29.885,103.813 C29.437,104.062 28.995,104.338 28.56,104.636 C28.662,104.277 28.768,103.925 28.883,103.576 z" fill="#0A5486" fill-opacity="0.302"/>
        <path d="M28.524,104.757 C30.103,103.672 31.989,102.58 33.962,101.821 C37.686,100.389 41.648,99.8 43.432,99.534 C45.347,99.252 46.989,99.179 48.927,99.208 C49.343,99.214 49.279,99.278 49.603,99.659 C50.432,100.629 50.368,100.316 48.815,100.296 C46.957,100.271 42.958,100.645 39.064,101.568 C35.15,102.496 31.349,104.178 29.664,105.138 C29.162,105.427 28.669,105.747 28.188,106.099 C28.294,105.644 28.406,105.196 28.528,104.757 z" fill="#3C93CE" fill-opacity="0.302"/>
        <path d="M28.147,106.272 C29.793,105.077 31.791,103.864 33.888,103.038 C37.651,101.558 41.651,100.943 43.486,100.655 C45.776,100.3 47.518,100.284 49.83,100.332 C50.32,100.341 50.147,100.303 50.525,100.828 C51.562,102.266 51.514,101.926 49.916,101.894 C46.653,101.834 44.757,102.019 41.584,102.599 C40.063,102.874 36.348,103.592 32.886,105.132 C31.003,105.968 29.219,107.149 27.749,108.286 C27.865,107.601 27.999,106.925 28.147,106.269 z" fill="#0A5486" fill-opacity="0.302"/>
        <path d="M31.881,97.728 C35.083,96.175 38.682,95.352 42.183,94.769 C42.298,94.75 44.191,94.82 42.545,95.195 C39.678,95.845 37.155,96.159 34.33,97.209 L33.943,97.353 C33.005,97.722 32.086,98.164 31.221,98.631 C31.432,98.32 31.65,98.016 31.884,97.728 z" fill="#0A5486" fill-opacity="0.302"/>
        <path d="M31.202,98.654 C34.913,96.665 38.714,95.659 42.865,95.073 C43.268,95.016 44.777,95.262 43.867,95.486 C42.612,95.797 41.289,96.034 40.018,96.309 C37.991,96.771 36.204,97.2 34.254,97.936 C32.941,98.445 31.663,99.096 30.504,99.778 C30.721,99.387 30.955,99.012 31.202,98.65 z" fill="#3C93CE" fill-opacity="0.302"/>
        <path d="M30.44,99.896 C34.724,97.405 38.871,96.245 43.742,95.502 C44.61,95.371 44.703,95.621 45.468,96.092 C41.904,96.713 38.66,97.325 35.224,98.525 C33.258,99.246 31.365,100.268 29.732,101.318 C29.95,100.825 30.183,100.351 30.436,99.896 z" fill="#0A5486" fill-opacity="0.302"/>
        <path d="M27.128,113.916 C28.976,112.248 31.365,110.486 33.924,109.35 C37.827,107.614 42.032,106.852 44.034,106.458 C45.455,106.179 46.9,106.08 48.344,106.003 C49.788,105.926 51.236,105.894 52.68,105.795 C52.754,106.061 52.827,106.339 52.901,106.628 C51.191,106.746 49.596,106.781 48.008,106.884 C46.416,106.983 44.825,107.14 43.124,107.495 C41.27,107.937 37.225,108.731 33.485,110.483 C31.07,111.614 28.819,113.321 27.077,114.938 C27.093,114.598 27.109,114.259 27.128,113.919 z" fill="#0A5486" fill-opacity="0.302"/>
        <path d="M27.077,114.934 C28.819,113.317 31.07,111.61 33.485,110.48 C37.225,108.728 41.27,107.934 43.124,107.492 C44.828,107.143 46.419,106.983 48.008,106.887 C49.599,106.788 51.191,106.746 52.901,106.628 C52.991,106.973 53.084,107.345 53.18,107.72 C51.45,107.844 49.808,107.87 48.171,107.969 C46.538,108.065 44.901,108.232 43.182,108.603 C41.872,108.94 38.445,109.641 35.195,110.948 C31.868,112.283 28.771,114.489 27.57,115.476 C27.391,115.649 27.211,115.828 27.035,116.011 C27.045,115.652 27.058,115.293 27.074,114.934 z" fill="#3C93CE" fill-opacity="0.302"/>
        <path d="M27.032,116.26 C28.774,114.601 31.035,112.85 33.469,111.694 C37.2,109.923 41.238,109.109 43.082,108.635 C44.825,108.254 46.477,108.085 48.126,107.989 C49.779,107.889 51.431,107.864 53.183,107.739 C53.308,108.238 53.433,108.754 53.558,109.276 C51.764,109.41 50.125,109.426 48.488,109.519 C46.852,109.612 45.209,109.75 43.425,110.179 C41.51,110.64 37.417,111.498 33.639,113.304 C31.122,114.509 28.787,116.356 27.007,118.105 C27.01,117.49 27.016,116.875 27.032,116.263 z" fill="#0A5486" fill-opacity="0.302"/>
        <path d="M30.894,118.412 C31.922,117.676 33.011,117.01 34.141,116.472 C38.055,114.608 42.288,113.702 44.36,113.135 C45.917,112.709 47.585,112.578 49.26,112.497 C50.935,112.417 52.635,112.421 54.272,112.296 C54.336,112.581 54.4,112.856 54.464,113.125 C52.616,113.269 50.903,113.26 49.196,113.349 C47.492,113.439 45.792,113.609 43.979,114.124 C43.082,114.381 40.063,115.072 37.149,116.145 C35.32,116.818 33.543,117.705 32.255,118.409 L30.897,118.409 z" fill="#0A5486" fill-opacity="0.302"/>
        <path d="M32.326,118.412 C32.921,118.041 33.536,117.701 34.157,117.4 C38.071,115.517 42.301,114.579 44.354,114.019 C47.242,113.228 49.439,113.42 52.357,113.285 C53.058,113.25 53.759,113.189 54.46,113.128 C54.544,113.497 54.627,113.865 54.714,114.227 C52.83,114.368 51.124,114.365 49.426,114.454 C47.729,114.544 46.025,114.717 44.158,115.236 C43.259,115.485 40.22,116.19 37.293,117.275 C36.367,117.618 35.458,118.015 34.615,118.416 L32.326,118.416 z" fill="#3C93CE" fill-opacity="0.302"/>
        <path d="M34.567,118.412 C38.365,116.632 42.391,115.722 44.383,115.181 C47.39,114.365 49.593,114.518 52.629,114.393 C53.33,114.371 54.022,114.3 54.72,114.246 C54.851,114.8 54.967,115.312 55.075,115.78 C53.295,115.918 51.652,115.927 50.016,116.011 C48.379,116.094 46.74,116.251 44.965,116.68 C44.178,116.872 41.472,117.487 38.753,118.412 L34.571,118.412 z" fill="#0A5486" fill-opacity="0.302"/>
      </g>
      <g id="_1207796400">
        <path d="M61.471,60.673 C52.18,56.712 53.83,68.385 54.137,71.401 C48.45,65.576 52.741,49.843 61.471,60.673 z" fill="#211514"/>
        <path d="M46.977,48.696 C56.19,46.977 59.133,56.885 58.691,59.392 C65.672,56.129 57.97,41.76 46.977,48.696 z" fill="#211514"/>
        <path d="M41.078,52.379 C50.291,50.659 57.359,53.055 56.917,55.562 C63.898,52.299 52.776,47.188 41.078,52.379 z" fill="#211514"/>
        <path d="M59.847,59.299 C50.557,55.338 46.756,65.791 47.063,68.811 C41.376,62.985 51.117,48.469 59.847,59.299 z" fill="#211514"/>
        <path d="M60.942,60.404 C56.113,55.005 46.916,58.912 43.352,58.72 C44.898,49.971 59.126,47.191 60.942,60.404 z" fill="#211514"/>
        <path d="M67.216,35.922 C72.813,33.504 77.191,34.948 79.634,36.681 C82.517,34.625 86.257,35.022 89.069,37.174 C90.308,38.122 90.731,39.8 91.599,41.081 C96.29,48.008 95.64,52.805 93.494,56.734 C89.565,63.933 90.177,67.216 90.199,65.784 L77.774,76.432 C75.01,57.842 72.769,71.222 63.552,72.98 C58.13,74.014 55.175,69.845 53.109,59.508 C52.398,55.953 62.864,37.808 67.216,35.925 z" fill="#211514"/>
        <path d="M78.501,39.569 C82.12,39.49 83.17,39.704 86.404,41.35 C88.172,42.26 88.982,43.105 90.113,44.703 L90.282,44.946 C91.256,46.352 91.896,47.774 92.409,49.401 C93.904,54.301 94.058,59.87 94.397,64.968 C95.112,75.596 95.595,73.396 91.064,84.137 C89.738,87.279 88.217,90.081 86.718,90.933 C86.055,91.307 79.218,91.826 77.466,91.608 C73.227,91.083 64.173,82.046 62.463,75.571 C62.233,74.697 62.041,73.483 61.909,72.019 C60.196,71.433 58.937,70.729 58.547,68.843 C58.518,68.702 58.496,68.564 58.473,68.423 C58.422,67.719 58.46,66.95 58.412,66.124 C58.329,64.718 56.222,63.133 56.311,60.811 C56.523,59.098 58.066,57.775 59.716,57.897 C62.486,58.476 61.679,60.776 62.995,62.473 C63.427,63.158 63.472,63.86 63.847,64.587 C64.292,65.454 63.584,64.67 63.613,65.528 C63.648,66.582 65.048,67.02 64.494,67.686 C64.289,67.933 64.132,68.215 64.081,68.538 C64.042,68.772 64.606,69.192 64.766,69.349 C65.099,69.675 65.086,69.714 65.4,69.425 C66.175,68.708 65.233,68.708 65.518,68.244 C65.832,67.735 66.729,67.75 65.887,67.02 C64.993,66.245 66.626,66.505 66.428,65.32 C66.316,64.657 66.14,64.273 66.088,63.52 C66.028,62.646 66.037,61.74 66.015,60.859 C65.996,60.286 65.98,59.713 65.963,59.136 C65.935,58.002 65.826,56.84 65.759,55.703 C65.691,54.515 65.698,53.183 65.835,52.004 C65.909,51.438 65.986,50.877 66.053,50.31 C66.265,48.485 66.729,47.21 67.67,45.635 L67.802,45.424 C68.49,44.312 69.429,43.563 70.325,42.634 C71.363,41.558 72.372,41.382 73.64,40.729 C75.17,39.861 76.557,39.694 78.283,39.592 L78.507,39.582 z" fill="#BA8858"/>
        <path d="M57.339,58.813 C58.377,57.961 59.914,57.202 61.048,58.319 C61.634,58.973 61.871,59.956 62.14,60.776 C62.226,61.035 62.217,60.939 62.159,61.166 C61.323,59.991 60.356,58.31 58.694,58.524 C58.249,58.582 57.778,58.71 57.336,58.813 z" fill="#E9B57D"/>
        <path d="M73.832,57.452 C75.478,57.448 77.572,58.944 79.298,60.536 C79.83,61.026 80.333,63.546 79.039,63.149 C77.665,62.726 77.55,61.72 77.063,61.33 C75.804,60.324 74.725,59.693 73.185,59.815 C72.157,59.898 69.595,61.442 69.294,59.946 C69.095,58.963 69.742,57.868 70.364,57.708 C71.555,57.4 72.186,57.455 73.835,57.452 z" fill="#A17750"/>
        <path d="M59.303,59.405 C60.654,59.399 60.84,60.974 61.384,62.191 C61.797,63.113 61.797,63.808 62.547,64.619 C63.924,66.178 62.614,67.229 62.687,68.977 C62.716,69.611 63.264,72.493 61.906,72.019 L61.906,72.013 C59.056,71.142 58.556,69.883 58.46,68.314 C58.819,69.672 59.773,70.492 60.945,70.812 C62.053,71.113 61.576,69.72 61.253,68.372 C61.224,68.244 61.189,68.128 61.15,68.004 C60.965,67.427 60.801,66.995 60.385,66.524 C59.213,65.195 59.661,65.173 60.077,63.719 C60.25,63.113 60.113,62.188 59.744,61.679 C59.408,61.211 58.457,61.231 58.489,61.897 C58.502,62.198 58.777,63.398 58.537,63.559 C58.147,63.821 57.66,62.841 57.576,62.579 C57.211,61.435 57.327,60.046 58.48,59.463 C58.604,59.399 58.797,59.424 58.979,59.408 L59.306,59.405 z" fill="#A17750"/>
        <path d="M90.606,60.004 C91.922,60.132 93.725,60.58 93.578,62.185 C93.501,63.011 92.719,63.792 92.069,62.95 C91.089,61.679 89.29,61.631 87.849,62.143 C87.122,62.403 86.968,64.026 86.177,63.879 C86.135,63.872 85.722,65.153 85.415,65.451 C84.995,65.852 84.723,67.113 84.611,66.29 C84.419,64.865 85.95,62.172 86.411,61.711 C87.615,60.507 88.889,60.122 90.603,60.007 z" fill="#A17750"/>
        <path d="M83.266,73.627 C83.871,73.688 84.976,73.393 85.604,73.143 C86.337,72.852 87.4,72.621 86.805,73.422 C86.308,74.088 85.463,74.924 84.656,75.612 C83.391,76.688 82.164,78.12 80.963,76.647 C80.477,76.051 79.554,76.685 78.767,76.538 C77.873,76.371 72.781,76.589 73.479,74.501 C73.665,73.944 76.909,71.917 77.598,71.231 C77.326,72.817 78.078,72.468 78.767,72.573 C80.326,72.813 82.126,73.694 83.269,73.627 z" fill="#A17750"/>
        <path d="M73.608,41.561 C77.726,40.22 80.739,40.124 84.835,41.658 C88.585,43.121 90.644,45.846 91.64,49.619 C92.249,51.928 92.482,53.852 92.534,56.235 C92.547,57.298 93.411,59.011 92.95,59.668 L92.55,59.652 L92.159,59.684 C90.862,59.69 90.212,60.404 88.934,60.837 C87.541,61.31 86.01,61.768 85.2,63.315 C84.47,65.214 84.944,69.38 85.78,71.228 C86.356,72.506 85.95,72.794 84.585,73.239 C82.241,73.595 81.505,72.788 79.353,72.48 C76.691,72.029 78.267,71.629 77.972,70.972 C75.728,71.533 74.261,72.314 72.442,73.278 C70.671,74.216 67.529,68.577 68.923,65.586 C69.806,63.684 73.281,64.782 75.683,64.631 L75.862,64.622 C78.139,64.478 81.87,64.907 80.009,61.211 C78.36,57.935 74.978,56.741 71.369,57.593 C70.636,57.765 70.104,57.823 69.483,57.951 C67.875,56.292 68.055,50.397 68.721,48.251 C69.63,45.462 70.821,42.91 73.604,41.561 z" fill="#E9B57D"/>
        <path d="M61.214,61.768 C61.397,62.274 61.592,62.777 61.765,63.206 L61.765,63.206 C61.948,63.655 62.105,64.023 62.204,64.212 L62.297,64.67 C62.153,64.394 61.909,63.882 61.631,63.258 L61.631,63.258 C61.455,62.822 61.259,62.316 61.08,61.813 C60.712,60.795 60.17,59.19 58.771,59.748 C58.412,59.892 58.05,60.263 57.644,60.888 C57.519,59.937 58.217,59.296 59.027,59.299 C60.318,59.306 60.849,60.747 61.218,61.765 z" fill="#836041"/>
        <path d="M61.781,63.7 C61.554,63.011 61.096,63.571 60.817,63.632 C60.186,64.702 60.078,66.325 61.439,66.739 C59.847,66.924 60.007,64.478 60.414,63.552 C60.635,63.056 60.961,62.63 61.352,62.47 L61.781,63.7 z" fill="#836041"/>
        <path d="M76.656,62.774 C77.409,63.235 77.684,63.168 77.479,63.501 C77.306,63.78 76.266,63.338 76.083,63.357 C74.319,63.53 73.784,64.026 72.019,62.953 C71.049,62.364 70.825,62.166 72.5,61.599 C74.238,61.013 75.209,61.897 76.656,62.774 z" fill="#CCCCCC"/>
        <g>
          <g>
            <g id="1">
              <path d="M74.027,61.304 C74.792,61.198 75.5,61.685 75.612,62.393 C75.721,63.101 75.19,63.76 74.424,63.866 C73.659,63.972 72.951,63.485 72.839,62.777 C72.73,62.069 73.262,61.41 74.027,61.304 z" fill="url(#Gradient_3)"/>
              <path d="M74.527,61.804 C75.292,61.698 76,62.185 76.112,62.893 C76.221,63.601 75.69,64.26 74.924,64.366 C74.159,64.472 73.451,63.985 73.339,63.277 C73.23,62.569 73.762,61.91 74.527,61.804 z" fill-opacity="0" stroke="#4E332A" stroke-width="0.567"/>
            </g>
            <path d="M74.615,62.53 C74.646,62.729 74.496,62.915 74.282,62.944 C74.067,62.974 73.868,62.837 73.837,62.638 C73.806,62.44 73.956,62.254 74.17,62.225 C74.385,62.195 74.584,62.332 74.615,62.53 z" fill="#151515"/>
          </g>
          <path d="M77.944,63.024 C78.318,64.013 77.092,63.706 75.699,63.6 C77.313,62.966 74.123,61.628 72.548,62.345 C72.006,62.592 72.458,63.152 72.429,63.434 C69.028,61.993 70.383,61.612 72.147,60.926 C73.912,60.241 76.31,61.474 77.944,63.024 z" fill="#000000" fill-opacity="0.302"/>
        </g>
        <path d="M77.156,63.274 C77.909,63.735 78.184,63.668 77.979,64.001 C77.806,64.28 76.766,63.838 76.583,63.857 C74.819,64.03 74.284,64.526 72.519,63.453 C71.549,62.864 71.325,62.666 73,62.099 C74.738,61.513 75.709,62.397 77.156,63.274 z" fill-opacity="0" stroke="#836041" stroke-width="0.567"/>
        <path d="M71.193,62.255 C71.107,61.964 72.202,61.387 72.522,61.272 C73.178,61.061 73.797,61.067 74.379,61.234 C75.433,61.535 76.378,62.316 77.262,63.011 C77.527,63.142 77.748,63.206 77.543,63.539 L77.412,63.459 C77.534,63.261 77.358,63.229 77.194,63.149 C76.781,62.947 76.432,62.726 76.048,62.479 C74.924,61.8 74.011,61.234 72.525,61.685 C72.327,61.749 71.382,62.044 71.344,62.278 L71.193,62.252 z" fill="#443636"/>
        <path d="M70.28,61.154 C70.418,61.045 70.553,60.942 70.687,60.843 C71.974,59.911 73.191,59.533 74.331,59.687 C75.471,59.841 76.528,60.532 77.495,61.74 C77.598,61.868 77.697,61.999 77.796,62.137 C77.899,62.278 77.998,62.419 78.094,62.553 C78.19,62.691 78.283,62.832 78.379,62.982 L78.257,63.059 C78.168,62.915 78.075,62.774 77.976,62.636 C77.876,62.495 77.78,62.361 77.681,62.22 C77.582,62.085 77.482,61.954 77.383,61.829 C76.438,60.651 75.414,59.978 74.312,59.831 C73.21,59.68 72.029,60.052 70.77,60.962 C70.639,61.058 70.504,61.16 70.37,61.266 L70.28,61.154 z" fill="#836041"/>
        <path d="M68.609,62.416 C69.33,62.861 69.784,62.986 70.646,62.979" fill-opacity="0" stroke="#A17750" stroke-width="0.567"/>
        <path d="M72.903,61.97 C73.729,61.881 73.319,62.31 72.941,62.371 C72.641,62.419 72.147,62.05 72.903,61.97 z" fill="#FFFFFF"/>
        <path d="M78.658,60.734 C74.914,57.721 73.896,57.439 70.716,57.935 C69.095,58.188 68.493,58.153 70.149,56.939 C75.158,53.266 80.387,60.977 80.096,61.439 C79.926,61.708 78.875,60.907 78.658,60.731 z" fill="#443636"/>
        <path d="M87.448,61.704 C90.081,60.801 91.016,59.93 93.241,60.696 C93.984,60.952 93.959,60.507 93.735,60.036 C92.514,57.471 89.037,59.52 86.427,61.295 C84.662,62.492 86.315,62.092 87.448,61.701 z" fill="#443636"/>
        <path d="M86.392,63.655 L85.87,63.914 C85.45,64.273 85.677,64.462 86.02,64.375 C86.462,64.263 86.382,64.209 86.91,64.35 C88.63,64.811 89.725,64.811 91.41,63.7 C90.295,62.867 89.523,62.604 88.742,62.646 C88.079,62.681 87.496,63.008 86.392,63.655 z" fill="#CCCCCC"/>
        <g>
          <g>
            <g id="1">
              <path d="M88.732,62.313 C88.06,62.169 87.339,62.601 87.125,63.277 C86.907,63.953 87.279,64.619 87.948,64.763 C88.62,64.907 89.341,64.474 89.555,63.799 C89.773,63.123 89.402,62.457 88.732,62.313 z" fill="url(#Gradient_4)"/>
              <path d="M89.232,62.813 C88.56,62.669 87.839,63.101 87.625,63.777 C87.407,64.453 87.779,65.119 88.448,65.263 C89.12,65.407 89.841,64.974 90.055,64.299 C90.273,63.623 89.902,62.957 89.232,62.813 z" fill-opacity="0" stroke="#4E332A" stroke-width="0.567"/>
            </g>
            <path d="M88,63.464 C87.94,63.654 88.043,63.84 88.232,63.881 C88.42,63.921 88.622,63.8 88.683,63.61 C88.744,63.421 88.64,63.234 88.452,63.193 C88.263,63.153 88.061,63.274 88,63.464 z" fill="#151515"/>
          </g>
          <path d="M86.366,63.722 L85.873,63.917 C85.485,64.225 85.601,64.401 85.85,64.394 C85.863,64.382 85.876,64.372 85.892,64.359 L87.704,64.561 C87.077,64.058 88.054,63.395 88.704,63.341 C89.335,63.286 90.657,63.408 90.558,64.241 C90.833,64.071 91.118,63.892 91.413,63.703 C90.266,62.915 89.383,62.681 88.678,62.748 C88.031,62.809 87.455,63.181 86.366,63.725 z" fill="#000000" fill-opacity="0.302"/>
        </g>
        <path d="M86.892,64.155 L86.37,64.414 C85.95,64.773 86.177,64.962 86.52,64.875 C86.962,64.763 86.882,64.709 87.41,64.85 C89.13,65.311 90.225,65.311 91.91,64.2 C90.795,63.367 90.023,63.104 89.242,63.146 C88.579,63.181 87.996,63.508 86.892,64.155 z" fill-opacity="0" stroke="#836041" stroke-width="0.567"/>
        <path d="M91.368,63.76 C90.612,63.21 89.757,62.697 88.748,62.768 C88.159,62.793 87.516,63.123 86.933,63.446 C86.667,63.594 86.427,63.722 86.155,63.85 C85.994,63.93 85.828,63.991 85.732,64.17 C85.706,64.215 85.706,64.25 85.719,64.273 L85.601,64.356 C85.562,64.292 85.562,64.209 85.617,64.109 C85.741,63.872 85.898,63.828 86.11,63.722 C86.401,63.559 86.622,63.379 86.904,63.203 C87.487,62.841 88.172,62.502 88.796,62.463 C89.85,62.473 90.804,63.027 91.535,63.715 L91.371,63.76 z" fill="#443636"/>
        <path d="M86.072,64.254 C86.341,63.421 87.567,62.611 88.461,62.477 C89.412,62.333 90.962,61.958 91.772,62.566 C92.371,63.018 92.304,63.075 92.701,63.729 C92.714,63.751 92.71,63.79 92.71,63.822" fill-opacity="0" stroke="#836041" stroke-width="0.567"/>
        <path d="M92.313,65.08 C92.384,65.228 92.963,65.519 93.133,65.525" fill-opacity="0" stroke="#A17750" stroke-width="0.567"/>
        <path d="M86.942,77.214 C85.104,78.001 84.499,78.11 82.456,78.065 C80.188,77.995 78.475,77.72 76.403,76.752 C75.462,76.314 73.496,75.379 72.73,76.509 C72.125,77.399 71.984,79.023 72.477,80 C73.134,81.306 74.104,81.953 75.571,82.03 C76.371,82.072 77.063,81.847 77.719,81.399 C78.715,80.65 80.871,81.008 82.062,81.085 C82.549,81.117 82.981,81.21 83.471,81.258 C84.352,81.367 83.74,81.578 84.531,82.12 C85.021,82.427 85.722,82.754 86.299,82.549 C87.218,82.152 87.804,80.89 88.358,80.038 C88.816,79.337 90.314,77.29 89.354,76.506 C88.822,76.07 87.708,76.836 87.138,77.117 L86.945,77.214 z" fill="#A17750"/>
        <path d="M77.851,81.047 C79.231,80.304 81.735,80.928 83.33,80.845 C84.832,80.765 83.647,81.396 85.165,81.992 C87.051,82.731 88.454,79.542 88.845,78.126 C89.229,76.73 88.569,76.775 87.768,77.14 C83.561,79.055 80.454,78.517 75.804,76.967 C73.899,76.333 72.689,76.323 72.919,78.712 C73.015,79.715 73.46,80.867 74.447,81.281 C75.609,81.767 76.752,81.607 77.851,81.047 z M94,76.906 C93.712,78.904 92.895,80.198 92.127,81.895 C91.035,84.297 90.25,85.956 89.251,88.438 C88.457,90.411 87.637,90.865 85.898,91.311 C84.262,91.733 82.356,91.538 80.826,91.823 C80.243,91.932 79.74,92.015 79.148,92.079 C76.759,92.322 75.34,91.368 73.508,89.962 C69.249,86.699 63.543,80.454 62.428,75.43 C63.885,77.697 66.633,81.761 69.044,82.943 C70.226,83.522 70.245,81.863 70.392,81.098 C70.838,78.776 70.079,75.971 72.275,74.331 L72.432,74.213 C73.002,73.825 73.528,73.653 74.197,73.515 C74.863,73.39 75.545,73.377 76.221,73.422 C77.931,73.566 79.689,74.482 81.303,75.058 C82.856,75.59 84.332,75.491 85.783,75.135 C87.381,74.786 89.949,74.181 90.484,76.282 C90.891,77.873 90.186,80.442 90.068,82.161 C90.052,82.408 90.042,82.651 90.033,82.898 C90.023,83.702 90.401,83.16 90.67,82.815 C91.608,81.601 92.928,79.106 93.555,77.652 C93.639,77.46 93.712,77.265 93.789,77.073 C93.866,76.877 94.071,76.426 94,76.909 z" fill="#211514"/>
        <path d="M78.149,71.616 C77.48,72.852 77.252,73.282 78.703,73.944" fill-opacity="0" stroke="#87614A" stroke-width="0.567"/>
        <path d="M78.879,73.432 C82.402,72.727 80.817,75.523 84.336,75.081 C85.521,74.934 85.188,74.319 86.693,73.727" fill-opacity="0" stroke="#87614A" stroke-width="0.567"/>
        <path d="M86.04,74.482 C88.496,73.89 87.433,72.772 86.341,71.632 L86.28,71.562" fill-opacity="0" stroke="#87614A" stroke-width="0.567"/>
        <path d="M74.114,77.249 C79.532,78.466 81.822,79.43 87.573,78.13 L88.175,77.995 L87.628,78.264 C87.592,78.28 87.532,78.29 87.503,78.296 L87.499,78.296 L87.499,78.296 L87.499,78.296 C81.79,79.753 79.446,78.706 74.085,77.393 L74.117,77.252 z" fill="#50392C"/>
        <path d="M88.073,66.012 C91.221,65.771 93.875,66.793 93.606,69.544 C93.421,71.43 92.37,73.124 91.323,73.701 C89.885,74.495 88.732,72.929 87.897,71.984 C86.324,70.204 84.922,66.252 88.07,66.012 z" fill="#E9B57D"/>
        <path d="M87.903,63.306 C88.076,63.254 88.22,63.299 88.223,63.408 C88.227,63.517 88.092,63.645 87.919,63.696 C87.746,63.748 87.602,63.703 87.599,63.594 C87.596,63.485 87.73,63.357 87.903,63.306 z" fill="#FFFFFF"/>
        <path d="M82.308,70.61 C82.565,70.575 82.802,70.783 82.837,71.078 C82.872,71.372 82.696,71.638 82.44,71.673 C82.184,71.709 81.947,71.5 81.911,71.206 C81.876,70.911 82.052,70.645 82.308,70.61 z" fill="#EDC79E"/>
        <path d="M75.926,44.146 C76.291,44.094 76.615,44.293 76.647,44.588 C76.679,44.882 76.41,45.164 76.045,45.212 C75.68,45.263 75.356,45.065 75.324,44.77 C75.292,44.476 75.561,44.194 75.926,44.146 z" fill="#EDC79E"/>
        <path d="M80.048,39.592 C84.384,38.317 86.052,31.989 85.982,29.482 C86.129,28.022 85.77,26.657 84.765,25.585 C86.478,25.575 87.65,25.995 88.278,26.917 C89.712,30.51 83.871,39.47 80.048,39.592 z" fill="#3D271D"/>
        <path d="M80.307,39.531 C86.555,39.582 89.456,30.843 89.52,29.501 C91.788,33.165 85.953,41.52 80.307,39.531 z" fill="#3D271D"/>
        <path d="M80.192,39.586 C84.451,32.002 77.563,29.982 76.214,29.943 C80.24,25.642 87.16,33.174 80.192,39.586 z" fill="#3D271D"/>
        <path d="M78.254,78.716 C80.829,79.202 82.731,79.263 85.338,79.055 C87.221,78.895 85.962,79.506 85.056,79.779 C83.282,80.23 78.847,79.996 77.162,79.209 C76.352,78.831 76.852,78.44 77.652,78.578 C77.851,78.613 78.059,78.668 78.254,78.712 z" fill="#E9B57D"/>
        <path d="M79.788,29.444 C80.925,29.69 82.123,31.061 82.123,32.124 C82.017,31.775 80.457,29.745 79.788,29.444 z" fill="#E6E6E6"/>
        <path d="M87.362,30.433 C87.858,29.267 88.159,27.833 87.682,26.747 C88.556,27.365 88.127,29.802 87.362,30.433 z" fill="#E6E6E6"/>
        <path d="M86.443,31.314 C87.093,29.44 87.25,27.567 86.142,26.216 C87.535,26.949 87.589,29.748 86.443,31.314 z" fill="#E6E6E6"/>
        <path d="M78.177,39.406 C74.392,33.222 65.666,37.475 63.879,39.333 C66.069,34.984 78.591,32.672 78.177,39.406 z" fill="#3D271D"/>
        <path d="M71.35,41.686 C66.69,39.483 58.774,47.752 58.307,51.137 C58.118,45.718 69.675,36.284 71.35,41.686 z" fill="#3D271D"/>
        <path d="M65.646,52.533 C60.971,52.075 55.636,57.669 55.303,57.961 C56.91,55.194 64.404,49.036 65.646,52.533 z" fill="#3D271D"/>
        <path d="M55.642,53.305 C48.613,51.908 44.226,57.926 43.893,58.217 C44.965,52.43 53.782,49.83 55.642,53.305 z" fill="#3D271D"/>
        <path d="M55.13,55.956 C48.161,57.621 46.541,62.364 45.817,65.211 C44.376,59.504 51.985,53.57 55.13,55.956 z" fill="#3D271D"/>
        <path d="M72.528,38.657 C68.586,37.165 64.987,38.926 63.52,39.794 C65.099,37.174 71.99,36.787 72.528,38.657 z" fill="#3D271D"/>
      </g>
    </g>
  </g>
</svg>
