<?xml version="1.0" encoding="UTF-8"?>
<!DOCTYPE svg PUBLIC "-//W3C//DTD SVG 1.1//EN" "http://www.w3.org/Graphics/SVG/1.1/DTD/svg11.dtd">
<svg version="1.1" xmlns="http://www.w3.org/2000/svg" xmlns:xlink="http://www.w3.org/1999/xlink" x="0" y="0" width="24" height="24" viewBox="0, 0, 24, 24">
  <g id="Layer_1">
    <path d="M8.667,17.5 L12,17.5 L12,16.5 L8.667,16.5 z M13.667,16.5 L17,16.5 L17,17.5 L13.667,17.5 z M22,16.5 L22,21.5 L17,21.5 L17,20.5 L20.889,20.5 L20.889,17.5 L18.667,17.5 L18.667,16.5 z M7,20.5 L10.333,20.5 L10.333,21.5 L7,21.5 z M12,20.5 L15.333,20.5 L15.333,21.5 L12,21.5 z M3.111,17.5 L3.111,20.5 L5.333,20.5 L5.333,21.5 L2,21.5 L2,16.5 L7,16.5 L7,17.5 z M8.667,3.5 L12,3.5 L12,2.5 L8.667,2.5 z M13.667,2.5 L17,2.5 L17,3.5 L13.667,3.5 z M22,2.5 L22,7.5 L17,7.5 L17,6.5 L20.889,6.5 L20.889,3.5 L18.667,3.5 L18.667,2.5 z M7,6.5 L10.333,6.5 L10.333,7.5 L7,7.5 z M12,6.5 L15.333,6.5 L15.333,7.5 L12,7.5 z M7,3.5 L7,2.5 L2,2.5 L2,7.5 L5.333,7.5 L5.333,6.5 L3.111,6.5 L3.111,3.5 z" fill="#000000" id="fileds"/>
    <path d="M22,9.5 L22,14.5 L2,14.5 L2,9.5 L22,9.5 z M20.889,10.5 L3.111,10.5 L3.111,13.5 L20.889,13.5 L20.889,10.5 z" fill="#000000" id="selected"/>
    <path d="M24,0 L24,24 L0,24 L0,0 L24,0 z M22.5,1.5 L1.5,1.5 L1.5,22.5 L22.5,22.5 L22.5,1.5 z" fill="#000000" id="frame" display="none"/>
  </g>
</svg>
