<?xml version="1.0" encoding="UTF-8"?>
<!DOCTYPE svg PUBLIC "-//W3C//DTD SVG 1.1//EN" "http://www.w3.org/Graphics/SVG/1.1/DTD/svg11.dtd">
<svg version="1.1" xmlns="http://www.w3.org/2000/svg" xmlns:xlink="http://www.w3.org/1999/xlink" x="0" y="0" width="24" height="24" viewBox="0, 0, 24, 24">
  <g id="Layer_1">
    <path d="M13.185,18 L19.815,18 C20.469,18 21,18.448 21,19 L21,20 C21,20.552 20.469,21 19.815,21 L13.185,21 C12.531,21 12,20.552 12,20 L12,19 C12,18.448 12.531,18 13.185,18 z" fill="#000000" id="button"/>
    <path d="M0.545,19.636 C0.847,19.636 1.091,19.881 1.091,20.182 L1.091,22.909 L3.818,22.909 C4.119,22.909 4.364,23.153 4.364,23.455 C4.364,23.756 4.119,24 3.818,24 L0.545,24 C0.244,24 -0,23.756 0,23.455 L0,20.182 C-0,19.881 0.244,19.636 0.545,19.636 L0.545,19.636 z M23.455,19.636 L23.455,19.636 C23.153,19.636 22.909,19.881 22.909,20.182 L22.909,22.909 L20.182,22.909 C19.881,22.909 19.636,23.153 19.636,23.455 C19.636,23.756 19.881,24 20.182,24 L23.455,24 C23.755,24 24,23.756 24,23.455 L24,20.182 C24,19.881 23.755,19.636 23.455,19.636 z M10.364,22.909 L7.091,22.909 C6.79,22.909 6.545,23.153 6.545,23.454 C6.545,23.756 6.79,24 7.091,24 L10.364,24 C10.664,24 10.909,23.756 10.909,23.454 C10.909,23.153 10.664,22.909 10.364,22.909 z M16.909,22.909 L13.636,22.909 C13.335,22.909 13.091,23.153 13.091,23.454 C13.091,23.756 13.335,24 13.636,24 L16.909,24 C17.209,24 17.455,23.756 17.455,23.454 C17.455,23.153 17.209,22.909 16.909,22.909 z M0.545,13.091 C0.244,13.091 0,13.335 0,13.636 L0,16.909 C0,17.21 0.244,17.455 0.545,17.455 C0.847,17.455 1.091,17.21 1.091,16.909 L1.091,13.636 C1.091,13.335 0.847,13.091 0.545,13.091 z M23.455,13.091 C23.153,13.091 22.909,13.335 22.909,13.636 L22.909,16.909 C22.909,17.21 23.153,17.455 23.455,17.455 C23.755,17.455 24,17.21 24,16.909 L24,13.636 C24,13.335 23.755,13.091 23.454,13.091 z M23.455,6.545 C23.153,6.545 22.909,6.79 22.909,7.091 L22.909,10.364 C22.909,10.665 23.153,10.909 23.455,10.909 C23.755,10.909 24,10.665 24,10.364 L24,7.091 C24,6.79 23.755,6.545 23.454,6.545 z M0.545,6.545 C0.244,6.545 0,6.79 0,7.091 L0,10.364 C0,10.665 0.244,10.909 0.545,10.909 C0.847,10.909 1.091,10.665 1.091,10.364 L1.091,7.091 C1.091,6.79 0.847,6.545 0.545,6.545 z M3.818,-0 L0.545,-0 C0.244,-0 -0,0.244 0,0.545 L0,3.818 C-0,4.119 0.244,4.364 0.545,4.364 C0.847,4.364 1.091,4.119 1.091,3.818 L1.091,1.091 L3.818,1.091 C4.119,1.091 4.364,0.847 4.364,0.545 C4.364,0.244 4.119,-0 3.818,-0 z M23.455,-0 L20.182,-0 C19.881,-0 19.636,0.244 19.636,0.545 C19.636,0.847 19.881,1.091 20.182,1.091 L22.909,1.091 L22.909,3.818 C22.909,4.119 23.153,4.364 23.455,4.364 C23.755,4.364 24,4.119 24,3.818 L24,0.545 C24,0.244 23.755,-0 23.455,-0 z M10.364,-0 L7.091,-0 C6.79,-0 6.545,0.244 6.545,0.545 C6.545,0.847 6.79,1.091 7.091,1.091 L10.364,1.091 C10.664,1.091 10.909,0.847 10.909,0.545 C10.909,0.244 10.664,-0 10.364,-0 z M16.909,-0 L13.636,-0 C13.335,-0 13.091,0.244 13.091,0.545 C13.091,0.847 13.335,1.091 13.636,1.091 L16.909,1.091 C17.209,1.091 17.455,0.847 17.455,0.545 C17.455,0.244 17.209,-0 16.909,-0 z" fill="#000000" id="frame"/>
    <path d="M21,12 L21,17 L3,17 L3,12 L21,12 z M20,13 L4,13 L4,16 L20,16 L20,13 z M3,10 L21,10 L21,11 L3,11 z M3,8 L21,8 L21,9 L3,9 z M3,6 L21,6 L21,7 L3,7 z M3,3 L15,3 L15,5 L3,5 z" fill="#000000" id="form"/>
  </g>
</svg>
