<?xml version="1.0" encoding="UTF-8"?>
<!DOCTYPE svg PUBLIC "-//W3C//DTD SVG 1.1//EN" "http://www.w3.org/Graphics/SVG/1.1/DTD/svg11.dtd">
<svg version="1.1" xmlns="http://www.w3.org/2000/svg" xmlns:xlink="http://www.w3.org/1999/xlink" x="0" y="0" width="24" height="24" viewBox="0, 0, 24, 24">
  <g id="Layer_1">
    <path d="M12,1 C18.075,1 23,5.925 23,12 C23,18.075 18.075,23 12,23 C5.925,23 1,18.075 1,12 C1,5.925 5.925,1 12,1 z M12,3.062 C9.613,3.062 7.368,3.992 5.681,5.681 C3.993,7.369 3.062,9.613 3.062,12 C3.062,14.387 3.992,16.632 5.681,18.319 C7.369,20.007 9.613,20.938 12,20.938 C14.387,20.938 16.632,20.008 18.319,18.319 C20.007,16.631 20.938,14.387 20.938,12 C20.938,9.613 20.008,7.368 18.319,5.681 C16.631,3.993 14.387,3.062 12,3.062 z" fill="#000000" id="frame"/>
    <path d="M10.5,18 L13.5,18 L13.5,15 L10.5,15 z M10.5,6 L13.5,6 L13.5,13 L10.5,13 z" fill="#000000" id="sign" opacity="0.6"/>
    <path d="M13.375,17 C13.375,17.76 12.76,18.375 12,18.375 C11.24,18.375 10.625,17.76 10.625,17 C10.625,16.24 11.24,15.625 12,15.625 C12.76,15.625 13.375,16.24 13.375,17 z M12,13.625 C12.76,13.625 13.375,13.01 13.375,12.25 L13.375,7 C13.375,6.24 12.76,5.625 12,5.625 C11.24,5.625 10.625,6.24 10.625,7 L10.625,12.25 C10.625,13.01 11.24,13.625 12,13.625 z" fill="#000000" id="sign-alt" display="none"/>
    <path d="M12,1 C18.075,1 23,5.925 23,12 C23,18.075 18.075,23 12,23 C5.925,23 1,18.075 1,12 C1,5.925 5.925,1 12,1 z M13.5,15.5 L10.5,15.5 L10.5,18.5 L13.5,18.5 L13.5,15.5 z M13.5,5.5 L10.5,5.5 L10.5,12.5 L13.5,12.5 L13.5,5.5 z" fill="#000000" id="full" display="none"/>
  </g>
</svg>
