<?xml version="1.0" encoding="UTF-8"?>
<!DOCTYPE svg PUBLIC "-//W3C//DTD SVG 1.1//EN" "http://www.w3.org/Graphics/SVG/1.1/DTD/svg11.dtd">
<svg version="1.1" xmlns="http://www.w3.org/2000/svg" xmlns:xlink="http://www.w3.org/1999/xlink" x="0" y="0" width="24" height="24" viewBox="0, 0, 24, 24">
  <g id="Layer_1">
    <path d="M21.6,0 C22.92,0 24,1.013 24,2.25 L24,21.75 C24,22.987 22.92,24 21.6,24 L2.4,24 C1.08,24 -0,22.987 0,21.75 L0,2.25 C-0,1.013 1.08,0 2.4,0 L21.6,0 z M21,3 L3,3 L3,21 L21,21 L21,3 z" fill="#000000" id="frame"/>
    <path d="M11,19 L18,19 L18,17 L11,17 z" fill="#000000" id="button"/>
    <path d="M18,13 L18,16 L6,16 L6,13 L18,13 z M17,14 L7,14 L7,15 L17,15 L17,14 z M6,11 L18,11 L18,12 L6,12 z M6,9 L18,9 L18,10 L6,10 z M6,7 L18,7 L18,8 L6,8 z M6,5 L18,5 L18,6 L6,6 z" fill="#000000" id="fields"/>
  </g>
</svg>
