<?xml version="1.0" encoding="UTF-8"?>
<!DOCTYPE svg PUBLIC "-//W3C//DTD SVG 1.1//EN" "http://www.w3.org/Graphics/SVG/1.1/DTD/svg11.dtd">
<svg version="1.1" xmlns="http://www.w3.org/2000/svg" xmlns:xlink="http://www.w3.org/1999/xlink" x="0" y="0" width="24" height="24" viewBox="0, 0, 24, 24">
  <g id="Layer_1">
    <path d="M21.6,0 C22.92,0 24,1.013 24,2.25 L24,21.75 C24,22.987 22.92,24 21.6,24 L2.4,24 C1.08,24 -0,22.987 0,21.75 L0,2.25 C-0,1.013 1.08,0 2.4,0 L21.6,0 z M21,3 L3,3 L3,21 L21,21 L21,3 z" fill="#000000" id="frame"/>
    <path d="M16.667,11 L7.333,11 C6.597,11 6,11.551 6,12.231 L6,17.769 C6,18.449 6.597,19 7.333,19 L16.667,19 C17.403,19 18,18.449 18,17.769 L18,12.231 C18,11.551 17.403,11 16.667,11 z M10.211,15.502 L11.279,16.364 C11.482,16.527 11.739,16.609 12,16.609 C12.261,16.609 12.518,16.527 12.721,16.364 L13.789,15.502 L13.765,15.525 L16.195,17.769 L7.805,17.769 L10.235,15.525 L10.211,15.502 z M7.333,17.334 L7.333,13.178 L9.735,15.118 L7.333,17.334 z M14.265,15.118 L16.667,13.178 L16.667,17.332 L14.265,15.118 z M16.667,12.231 L16.667,12.36 L12.283,15.901 C12.131,16.023 11.869,16.023 11.717,15.901 L7.333,12.36 L7.333,12.231 L16.667,12.231 z" fill="#000000" id="mail"/>
    <path d="M6,10 L18,10 L18,9 L6,9 z M6,7 L18,7 L18,8 L6,8 z M6,5 L18,5 L18,6 L6,6 z" fill="#000000" id="fields"/>
  </g>
</svg>
