<?xml version="1.0" encoding="UTF-8"?>
<!DOCTYPE svg PUBLIC "-//W3C//DTD SVG 1.1//EN" "http://www.w3.org/Graphics/SVG/1.1/DTD/svg11.dtd">
<svg version="1.1" xmlns="http://www.w3.org/2000/svg" xmlns:xlink="http://www.w3.org/1999/xlink" x="0" y="0" width="24" height="24" viewBox="0, 0, 24, 24">
  <g id="Layer_1">
    <path d="M21.333,3.333 L2.667,3.333 C1.195,3.333 0,4.528 0,6 L0,18 C0,19.472 1.195,20.667 2.667,20.667 L21.333,20.667 C22.805,20.667 24,19.472 24,18 L24,6 C24,4.528 22.805,3.333 21.333,3.333 z M8.421,13.088 L10.557,14.955 C10.964,15.309 11.479,15.485 12,15.485 C12.521,15.485 13.036,15.308 13.443,14.955 L15.579,13.088 L15.529,13.137 L20.391,17.999 L3.609,17.999 L8.471,13.137 L8.421,13.088 z M2.667,17.057 L2.667,8.053 L7.469,12.255 L2.667,17.057 z M16.531,12.255 L21.333,8.053 L21.333,17.053 L16.531,12.255 z M21.333,6 L21.333,6.28 L12.565,13.952 C12.263,14.216 11.737,14.216 11.435,13.952 L2.667,6.28 L2.667,6 L21.333,6 z" fill="#666666"/>
  </g>
</svg>
