<?xml version="1.0" encoding="UTF-8"?>
<!DOCTYPE svg PUBLIC "-//W3C//DTD SVG 1.1//EN" "http://www.w3.org/Graphics/SVG/1.1/DTD/svg11.dtd">
<svg version="1.1" xmlns="http://www.w3.org/2000/svg" xmlns:xlink="http://www.w3.org/1999/xlink" x="0" y="0" width="24" height="24" viewBox="0, 0, 24, 24">
  <g id="Layer_1">
    <path d="M22.5,20.352 L19.5,20.352 C19.224,20.352 19,20.128 19,19.852 C19,19.576 19.224,19.352 19.5,19.352 L22,19.352 L22,16.852 C22,16.576 22.224,16.352 22.5,16.352 C22.775,16.352 23,16.576 23,16.852 L23,19.852 C23,20.128 22.775,20.352 22.5,20.352 z M22.5,14.352 C22.224,14.352 22,14.128 22,13.852 L22,10.852 C22,10.576 22.224,10.352 22.5,10.352 C22.775,10.352 23,10.576 23,10.852 L23,13.852 C23,14.128 22.775,14.352 22.5,14.352 z M22.5,8.352 C22.224,8.352 22,8.128 22,7.852 L22,5.352 L19.5,5.352 C19.224,5.352 19,5.128 19,4.852 C19,4.576 19.224,4.352 19.5,4.352 L22.5,4.352 C22.775,4.352 23,4.576 23,4.852 L23,7.852 C23,8.128 22.775,8.352 22.5,8.352 z M16.5,20.352 L13.5,20.352 C13.224,20.352 13,20.128 13,19.852 C13,19.576 13.224,19.352 13.5,19.352 L16.5,19.352 C16.775,19.352 17,19.576 17,19.852 C17,20.128 16.775,20.352 16.5,20.352 z M16.5,5.352 L13.5,5.352 C13.224,5.352 13,5.128 13,4.852 C13,4.576 13.224,4.352 13.5,4.352 L16.5,4.352 C16.775,4.352 17,4.576 17,4.852 C17,5.128 16.775,5.352 16.5,5.352 z M10.5,5.352 L7.5,5.352 C7.224,5.352 7,5.128 7,4.852 C7,4.576 7.224,4.352 7.5,4.352 L10.5,4.352 C10.775,4.352 11,4.576 11,4.852 C11,5.128 10.775,5.352 10.5,5.352 z M4.5,20.352 L1.5,20.352 C1.224,20.352 1,20.128 1,19.852 L1,16.852 C1,16.576 1.224,16.352 1.5,16.352 C1.776,16.352 2,16.576 2,16.852 L2,19.352 L4.5,19.352 C4.776,19.352 5,19.576 5,19.852 C5,20.128 4.776,20.352 4.5,20.352 z M4.5,5.352 L2,5.352 L2,7.852 C2,8.128 1.776,8.352 1.5,8.352 C1.224,8.352 1,8.128 1,7.852 L1,4.852 C1,4.576 1.224,4.352 1.5,4.352 L4.5,4.352 C4.776,4.352 5,4.576 5,4.852 C5,5.128 4.776,5.352 4.5,5.352 z M1.5,10.352 C1.776,10.352 2,10.576 2,10.852 L2,13.852 C2,14.128 1.776,14.352 1.5,14.352 C1.224,14.352 1,14.128 1,13.852 L1,10.852 C1,10.576 1.224,10.352 1.5,10.352 z M7.5,19.352 L10.5,19.352 C10.775,19.352 11,19.576 11,19.852 C11,20.128 10.775,20.352 10.5,20.352 L7.5,20.352 C7.224,20.352 7,20.128 7,19.852 C7,19.576 7.224,19.352 7.5,19.352 z" fill="#000000" id="frame" opacity="0.3"/>
    <path d="M6.195,14.431 Q5.793,13.717 5.325,13.021 Q4.857,12.325 4.329,11.707 L4.329,14.431 L3.405,14.431 L3.405,10.273 L4.167,10.273 Q4.365,10.471 4.605,10.759 Q4.845,11.047 5.094,11.374 Q5.343,11.701 5.589,12.052 Q5.835,12.403 6.051,12.727 L6.051,10.273 L6.981,10.273 L6.981,14.431 z M9.603,11.215 Q9.639,11.305 9.699,11.461 Q9.759,11.617 9.84,11.821 Q9.921,12.025 10.011,12.271 Q10.101,12.517 10.197,12.787 L9.015,12.787 Q9.111,12.517 9.204,12.271 Q9.297,12.025 9.375,11.821 Q9.453,11.617 9.513,11.461 Q9.573,11.305 9.603,11.215 z M11.727,14.431 Q11.493,13.759 11.283,13.189 Q11.073,12.619 10.872,12.115 Q10.671,11.611 10.473,11.158 Q10.275,10.705 10.071,10.273 L9.177,10.273 Q8.967,10.705 8.772,11.158 Q8.577,11.611 8.376,12.115 Q8.175,12.619 7.965,13.189 Q7.755,13.759 7.521,14.431 L8.493,14.431 Q8.559,14.215 8.64,13.987 Q8.721,13.759 8.799,13.531 L10.419,13.531 Q10.497,13.759 10.578,13.987 Q10.659,14.215 10.725,14.431 z M12.477,10.273 Q12.417,10.687 12.366,11.2 Q12.315,11.713 12.276,12.268 Q12.237,12.823 12.204,13.381 Q12.171,13.939 12.147,14.431 L13.059,14.431 Q13.077,13.825 13.107,13.111 Q13.137,12.397 13.197,11.671 Q13.305,11.923 13.437,12.229 Q13.569,12.535 13.698,12.841 Q13.827,13.147 13.947,13.426 Q14.067,13.705 14.151,13.903 L14.805,13.903 Q14.889,13.705 15.009,13.426 Q15.129,13.147 15.258,12.841 Q15.387,12.535 15.519,12.229 Q15.651,11.923 15.759,11.671 Q15.819,12.397 15.849,13.111 Q15.879,13.825 15.897,14.431 L16.809,14.431 Q16.785,13.939 16.752,13.381 Q16.719,12.823 16.68,12.268 Q16.641,11.713 16.59,11.2 Q16.539,10.687 16.479,10.273 L15.627,10.273 Q15.519,10.471 15.378,10.762 Q15.237,11.053 15.084,11.392 Q14.931,11.731 14.781,12.085 Q14.631,12.439 14.499,12.751 Q14.367,12.439 14.217,12.085 Q14.067,11.731 13.914,11.392 Q13.761,11.053 13.62,10.762 Q13.479,10.471 13.371,10.273 z M20.595,14.431 L20.595,13.645 L18.585,13.645 L18.585,12.643 L20.247,12.643 L20.247,11.875 L18.585,11.875 L18.585,11.059 L20.457,11.059 L20.457,10.273 L17.649,10.273 L17.649,14.431 z" fill="#000000" id="name"/>
  </g>
</svg>
