<?xml version="1.0" encoding="UTF-8"?>
<!DOCTYPE svg PUBLIC "-//W3C//DTD SVG 1.1//EN" "http://www.w3.org/Graphics/SVG/1.1/DTD/svg11.dtd">
<svg version="1.1" xmlns="http://www.w3.org/2000/svg" xmlns:xlink="http://www.w3.org/1999/xlink" x="0" y="0" width="24" height="24" viewBox="0, 0, 24, 24">
  <g id="recaptcha">
    <g id="recaptcha">
      <path d="M2,12 C2,12.144 2.004,12.287 2.01,12.429 L2.01,20.546 L4.254,18.302 C6.091,20.55 8.885,21.986 12.014,21.986 C15.27,21.986 18.164,20.431 19.993,18.024 L16.314,14.307 C15.954,14.974 15.442,15.546 14.825,15.979 C14.182,16.48 13.273,16.89 12.014,16.89 C11.862,16.89 11.745,16.872 11.658,16.839 C10.099,16.715 8.747,15.855 7.951,14.606 L10.555,12.002 C7.257,12.015 3.532,12.023 2,12.001" fill="#1C3AA9" id="full" opacity="0.25"/>
      <path d="M11.986,2 L3.44,2.01 L5.684,4.254 C3.436,6.091 2,8.885 2,12.014 C2,12.014 2,12.014 2,12.014 C2.133,12.066 3.328,10.891 4.016,10.891 C4.703,10.891 3.328,10.906 4.25,10.906 C4.317,10.906 7.096,12.083 7.096,12.014 C7.27,10.099 8.131,8.747 9.38,7.951 L11.984,10.555 C11.971,7.257 11.963,3.532 11.985,2 M2,12.014 L7.096,12.014 C7.096,12.014 4.125,10.188 4.125,10.188 C4.125,10.188 2,12.014 2,12.014 z" fill="#1C3AA9" id="50" opacity="0.5"/>
      <path d="M21.97,11.986 L21.96,3.44 L19.72,5.684 C17.886,3.436 15.097,2 11.973,2 C11.973,2 11.973,2 11.973,2 C11.921,2.133 13.094,3.328 13.094,4.016 C13.094,4.703 13.079,3.328 13.079,4.25 C13.079,4.317 11.904,7.096 11.973,7.096 C13.885,7.27 15.234,8.131 16.029,9.38 L13.43,11.984 C16.722,11.971 20.441,11.963 21.97,11.985 M11.973,2 L11.973,7.096 C11.973,7.096 13.796,4.125 13.796,4.125 C13.796,4.125 11.973,2 11.973,2 z" fill="#1C3AA9" id="100"/>
    </g>
  </g>
</svg>
