<?xml version="1.0" encoding="UTF-8"?>
<!DOCTYPE svg PUBLIC "-//W3C//DTD SVG 1.1//EN" "http://www.w3.org/Graphics/SVG/1.1/DTD/svg11.dtd">
<svg version="1.1" xmlns="http://www.w3.org/2000/svg" xmlns:xlink="http://www.w3.org/1999/xlink" x="0" y="0" width="24" height="24" viewBox="0, 0, 24, 24">
  <g id="Layer_1">
    <path d="M12,2.993 L21.219,21.367 L2.781,21.367 L11.999,2.993 z M12,1 C11.526,1 11.052,1.32 10.692,1.959 L1.301,20.674 C0.582,21.953 1.194,23 2.661,23 L21.338,23 C22.805,23 23.417,21.954 22.698,20.674 L22.698,20.674 L13.307,1.959 C12.947,1.32 12.473,1 11.999,1 L11.999,1 z" fill="#000000" id="frame"/>
    <path d="M13.374,18.875 C13.374,19.635 12.759,20.25 11.999,20.25 C11.24,20.25 10.624,19.635 10.624,18.875 C10.624,18.115 11.24,17.5 11.999,17.5 C12.759,17.5 13.374,18.115 13.374,18.875 z M11.999,15.5 C12.759,15.5 13.374,14.885 13.374,14.125 L13.374,8.875 C13.374,8.115 12.759,7.5 11.999,7.5 C11.24,7.5 10.624,8.115 10.624,8.875 L10.624,14.125 C10.624,14.885 11.24,15.5 11.999,15.5 z" fill="#000000" id="sign-alt" display="none"/>
    <path d="M13.375,18.875 C13.375,19.635 12.76,20.25 12,20.25 C11.24,20.25 10.625,19.635 10.625,18.875 C10.625,18.115 11.24,17.5 12,17.5 C12.76,17.5 13.375,18.115 13.375,18.875 z M12,16.125 C12.76,16.125 13.375,15.51 13.375,14.75 L13.375,10.625 C13.375,9.865 12.76,9.25 12,9.25 C11.24,9.25 10.625,9.865 10.625,10.625 L10.625,14.75 C10.625,15.51 11.24,16.125 12,16.125 z" fill="#000000" id="sign" opacity="0.7" display="none"/>
    <path d="M10.5,20 L13.5,20 L13.5,17 L10.5,17 z M10.5,9 L13.5,9 L13.5,16 L10.5,16 z" fill="#000000" id="sign-alt2" opacity="0.7"/>
  </g>
</svg>
