<?xml version="1.0" encoding="UTF-8"?>
<!DOCTYPE svg PUBLIC "-//W3C//DTD SVG 1.1//EN" "http://www.w3.org/Graphics/SVG/1.1/DTD/svg11.dtd">
<svg version="1.1" xmlns="http://www.w3.org/2000/svg" xmlns:xlink="http://www.w3.org/1999/xlink" x="0" y="0" width="24" height="24" viewBox="0, 0, 24, 24">
  <g id="Layer_1">
    <path d="M21,0 L3,0 C1.35,0 0,1.35 0,3 L0,21 C0,22.65 1.35,24 3,24 L21,24 C22.65,24 24,22.65 24,21 L24,3 C24,1.35 22.65,0 21,0 z M22,22 L2,22 L2,2 L22,2 L22,22 z" fill="#000000" id="frame"/>
    <path d="M5,19 L15,19 L15,17 L5,17 z M5,13 L19,13 L19,15 L5,15 z M5,9 L19,9 L19,11 L5,11 z M5,5 L19,5 L19,7 L5,7 z" fill="#000000" id="textarea" display="none"/>
    <path d="M18.562,5 L5.438,5 C5.196,5 5,5.196 5,5.438 L5,8.062 C5,8.304 5.196,8.5 5.438,8.5 L5.875,8.5 C6.117,8.5 6.313,8.304 6.313,8.062 L7.188,6.75 L11.125,6.75 L11.125,17.25 L8.938,18.125 C8.696,18.125 8.5,18.321 8.5,18.562 C8.5,18.804 8.696,19 8.938,19 L15.062,19 C15.304,19 15.5,18.804 15.5,18.562 C15.5,18.321 15.304,18.125 15.062,18.125 L12.875,17.25 L12.875,6.75 L16.812,6.75 L17.688,8.062 C17.688,8.304 17.883,8.5 18.125,8.5 L18.562,8.5 C18.804,8.5 19,8.304 19,8.062 L19,5.438 C19,5.196 18.804,5 18.562,5 z" fill="#000000" id="text" display="none"/>
    <path d="M18.5,5.5 L5.5,5.5 C4.675,5.5 4,6.175 4,7 L4,17 C4,17.825 4.675,18.5 5.5,18.5 L18.5,18.5 C19.325,18.5 20,17.825 20,17 L20,7 C20,6.175 19.325,5.5 18.5,5.5 z M10.231,12.099 L6,15.394 L6,7.556 L10.231,12.099 z M6.756,7.5 L17.244,7.5 L12,11.438 L6.756,7.5 z M10.395,12.276 L12,14 L13.605,12.276 L16.895,16.5 L7.106,16.5 L10.396,12.276 z M13.769,12.099 L18,7.556 L18,15.394 L13.769,12.099 z" fill="#000000" id="mail-alt" display="none"/>
    <path d="M17.444,7 L6.556,7 C5.697,7 5,7.689 5,8.539 L5,15.461 C5,16.311 5.697,17 6.556,17 L17.444,17 C18.303,17 19,16.311 19,15.461 L19,8.539 C19,7.689 18.303,7 17.444,7 z M9.912,12.628 L11.158,13.705 C11.396,13.909 11.696,14.01 12,14.01 C12.304,14.01 12.604,13.908 12.842,13.705 L14.088,12.628 L14.059,12.656 L16.895,15.461 L7.105,15.461 L9.941,12.656 L9.912,12.628 z M6.556,14.917 L6.556,9.723 L9.357,12.147 L6.556,14.917 z M14.643,12.147 L17.444,9.723 L17.444,14.915 L14.643,12.147 z M17.444,8.539 L17.444,8.7 L12.33,13.126 C12.153,13.278 11.847,13.278 11.67,13.126 L6.556,8.7 L6.556,8.539 L17.444,8.539 z" fill="#000000" id="mail" display="none"/>
    <path d="M19,12 C19,8.133 15.867,5 12,5 C8.133,5 5,8.133 5,12 C5,15.867 8.133,19 12,19 C15.867,19 19,15.867 19,12 z" fill="#000000" display="none"/>
    <path d="M18,7 C18.552,7 19,7.448 19,8 L19,16 C19,16.552 18.552,17 18,17 L6,17 C5.448,17 5,16.552 5,16 L5,8 C5,7.448 5.448,7 6,7 L18,7 z M15.52,8.813 L15.299,8.844 L8.549,11.446 C8.088,11.625 8.096,11.883 8.471,12 L10.197,12.539 L14.205,10.016 C14.393,9.891 14.565,9.961 14.424,10.086 L11.182,13.016 L11.057,14.797 C11.237,14.797 11.315,14.719 11.409,14.625 L12.252,13.813 L14.002,15.102 C14.323,15.281 14.549,15.188 14.635,14.805 L14.635,14.805 L15.783,9.391 C15.799,8.959 15.865,9.16 15.52,8.813 z" fill="#000000" id="submit-alt" display="none"/>
    <path d="M18,7 C18.552,7 19,7.448 19,8 L19,16 C19,16.552 18.552,17 18,17 L6,17 C5.448,17 5,16.552 5,16 L5,8 C5,7.448 5.448,7 6,7 L18,7 z M10.058,9.782 Q9.07,9.782 8.508,10.393 Q7.945,11.004 7.945,12.056 Q7.945,13.099 8.508,13.712 Q9.07,14.326 10.058,14.326 Q11.042,14.326 11.607,13.72 Q12.173,13.113 12.173,12.056 Q12.173,10.998 11.607,10.39 Q11.042,9.782 10.058,9.782 z M10.061,10.605 Q10.251,10.605 10.428,10.683 Q10.606,10.761 10.746,10.939 Q10.881,11.115 10.961,11.389 Q11.042,11.663 11.042,12.053 Q11.042,12.463 10.966,12.716 Q10.89,12.97 10.749,13.16 Q10.617,13.336 10.436,13.419 Q10.254,13.503 10.061,13.503 Q9.87,13.503 9.691,13.425 Q9.513,13.348 9.372,13.166 Q9.234,12.987 9.155,12.722 Q9.076,12.457 9.076,12.056 Q9.076,11.666 9.16,11.385 Q9.243,11.103 9.378,10.934 Q9.53,10.749 9.694,10.677 Q9.858,10.605 10.061,10.605 z M13.787,9.677 L12.762,9.677 L12.762,14.235 L13.787,14.235 L13.787,13.017 L13.945,12.803 L14.836,14.235 L16.055,14.235 L14.818,12.363 L15.97,10.945 L14.76,10.945 L13.787,12.231 L13.787,9.677 z" fill="#000000" id="submit" display="none"/>
    <path d="M15.267,13.4 C14.333,14.333 14.333,15.267 13.4,15.267 C12.467,15.267 11.533,14.333 10.6,13.4 C9.667,12.467 8.733,11.533 8.733,10.6 C8.733,9.667 9.667,9.667 10.6,8.733 C11.533,7.8 8.733,5 7.8,5 C6.867,5 5,7.8 5,7.8 C5,9.667 6.917,13.451 8.733,15.267 C10.549,17.082 14.333,19 16.2,19 C16.2,19 19,17.133 19,16.2 C19,15.267 16.2,12.467 15.267,13.4 z" fill="#000000" id="tel" display="none"/>
    <path d="M10.995,13.733 C10.809,13.733 10.622,13.661 10.48,13.519 C9.148,12.187 9.148,10.02 10.48,8.688 L13.169,6 C13.814,5.355 14.672,5 15.585,5 C16.497,5 17.355,5.355 18.001,6 C19.333,7.332 19.333,9.499 18.001,10.831 L16.772,12.06 C16.487,12.345 16.026,12.345 15.742,12.06 C15.457,11.776 15.457,11.315 15.742,11.031 L16.971,9.802 C17.735,9.037 17.735,7.794 16.971,7.03 C16.601,6.66 16.108,6.456 15.585,6.456 C15.061,6.456 14.569,6.66 14.198,7.03 L11.51,9.718 C10.745,10.482 10.745,11.726 11.51,12.49 C11.794,12.774 11.794,13.235 11.51,13.519 C11.368,13.661 11.181,13.733 10.995,13.733 z M8.415,19 C9.328,19 10.186,18.645 10.831,18 L13.52,15.311 C14.852,13.98 14.852,11.812 13.52,10.481 C13.235,10.196 12.775,10.196 12.49,10.481 C12.206,10.765 12.206,11.226 12.49,11.51 C13.255,12.274 13.255,13.518 12.49,14.282 L9.802,16.97 C9.431,17.34 8.939,17.544 8.415,17.544 C7.892,17.544 7.399,17.34 7.029,16.97 C6.265,16.206 6.265,14.962 7.029,14.198 L8.258,12.969 C8.543,12.685 8.542,12.224 8.258,11.94 C7.974,11.655 7.513,11.655 7.228,11.94 L5.999,13.169 C4.667,14.501 4.667,16.668 5.999,18 C6.645,18.645 7.503,19 8.415,19 z" fill="#000000" id="url" display="none"/>
    <path d="M17.25,5 L6.75,5 C5.787,5 5,5.787 5,6.75 L5,17.25 C5,18.212 5.787,19 6.75,19 L17.25,19 C18.212,19 19,18.212 19,17.25 L19,6.75 C19,5.787 18.212,5 17.25,5 z M11.125,15.862 L7.881,12.619 L9.119,11.381 L11.125,13.388 L15.319,9.194 L16.556,10.431 L11.125,15.862 z" fill="#000000" id="checkbox"/>
    <path d="M19,11.631 Q19,12.466 18.806,13.16 Q18.613,13.854 18.205,14.351 Q17.783,14.856 17.157,15.127 Q16.531,15.397 15.621,15.397 Q15.314,15.397 14.98,15.357 Q14.646,15.318 14.536,15.287 L14.536,14 L14.663,14 Q14.786,14.061 15.013,14.131 Q15.239,14.202 15.639,14.202 Q15.959,14.202 16.258,14.116 Q16.557,14.03 16.772,13.846 Q16.996,13.652 17.146,13.362 Q17.295,13.072 17.348,12.637 Q16.996,12.857 16.695,12.973 Q16.394,13.09 15.946,13.09 Q15.608,13.09 15.298,13 Q14.988,12.91 14.734,12.721 Q14.395,12.457 14.198,12.042 Q14,11.626 14,10.967 Q14,10.458 14.173,10.025 Q14.347,9.592 14.668,9.271 Q14.984,8.955 15.445,8.774 Q15.907,8.594 16.473,8.594 Q17.045,8.594 17.488,8.755 Q17.932,8.915 18.248,9.245 Q18.618,9.618 18.809,10.207 Q19,10.796 19,11.631 z M17.374,11.385 Q17.374,10.853 17.284,10.508 Q17.194,10.163 17.031,9.97 Q16.917,9.829 16.774,9.768 Q16.632,9.706 16.465,9.706 Q16.32,9.706 16.181,9.765 Q16.043,9.825 15.915,9.97 Q15.801,10.097 15.722,10.343 Q15.643,10.589 15.643,10.884 Q15.643,11.2 15.724,11.405 Q15.806,11.609 15.946,11.732 Q16.087,11.851 16.267,11.899 Q16.447,11.947 16.667,11.947 Q16.851,11.947 17.047,11.897 Q17.242,11.846 17.361,11.793 Q17.361,11.745 17.368,11.655 Q17.374,11.565 17.374,11.385 z M13.514,11.756 L10.601,11.756 L10.601,12.978 L13.514,12.978 z M8.397,11.996 Q8.397,13.2 8.195,13.698 Q7.993,14.197 7.523,14.197 Q7.052,14.197 6.85,13.698 Q6.648,13.2 6.648,12.004 Q6.648,10.783 6.85,10.293 Q7.052,9.803 7.523,9.803 Q7.997,9.803 8.197,10.293 Q8.397,10.783 8.397,11.996 z M10.045,11.996 Q10.045,11.174 9.911,10.541 Q9.777,9.908 9.478,9.478 Q9.175,9.038 8.703,8.816 Q8.23,8.594 7.523,8.594 Q6.855,8.594 6.371,8.807 Q5.888,9.021 5.58,9.456 Q5.268,9.899 5.134,10.515 Q5,11.13 5,12 Q5,12.844 5.136,13.474 Q5.273,14.105 5.571,14.536 Q5.875,14.971 6.354,15.188 Q6.833,15.406 7.523,15.406 Q8.217,15.406 8.696,15.188 Q9.175,14.971 9.474,14.544 Q9.773,14.118 9.909,13.481 Q10.045,12.844 10.045,11.996 z" fill="#000000" id="number" display="none"/>
  </g>
</svg>
