<?xml version="1.0" encoding="UTF-8"?>
<!DOCTYPE svg PUBLIC "-//W3C//DTD SVG 1.1//EN" "http://www.w3.org/Graphics/SVG/1.1/DTD/svg11.dtd">
<svg version="1.1" xmlns="http://www.w3.org/2000/svg" xmlns:xlink="http://www.w3.org/1999/xlink" x="0" y="0" width="100" height="80" viewBox="0, 0, 100, 80">
  <g id="contact-plus">
    <g>
      <path d="M25.082,57.134 L25.039,56.552 C25.039,48.433 31.346,48.385 39.882,45.504 C41.228,48.818 45.249,51.224 50,51.224 C54.751,51.224 58.772,48.818 60.118,45.504 L60.912,45.766 C64.613,47.15 70.278,47.764 73.068,50.782 C74.528,52.361 74.936,54.465 74.961,56.552 L74.918,57.134 C73.54,64.029 55.06,65.018 50,65.108 C43.338,64.957 36.35,64.632 30.153,61.899 C28.181,61.03 25.426,59.551 25.088,57.134 L25.082,57.134 z" fill="#DA2C41"/>
      <path d="M48.071,13.116 C49.018,13.877 50.068,14.825 50.223,16.096 C50.631,15.448 50.75,13.336 50.75,13.336 C52.527,14.488 52.454,16.503 52.454,16.503 C53.102,16.36 54.447,13.888 54.446,13.888 C55.619,15.624 55.057,16.706 54.894,16.954 C55.905,15.577 58.383,15.728 58.383,15.728 C57.014,16.825 57.447,18.615 57.447,18.615 C58.646,17.704 60.326,18.135 60.326,18.135 C59.198,18.687 59.15,20.247 59.15,20.247 C60.255,19.263 62.223,20.823 62.221,20.823 C60.902,20.92 60.35,22.167 60.35,22.167 C61.214,21.519 63.038,23.368 63.038,23.368 C62.268,23.279 61.551,23.763 61.237,24.015 C61.281,24.064 61.324,24.112 61.366,24.159 C63.278,24.319 63.278,27.567 63.278,27.567 C63.195,27.39 62.883,27.078 62.53,26.762 L62.53,28.322 C63.314,28.809 63.794,30.979 63.631,33.542 C63.469,36.085 62.211,38.129 61.262,38.53 L61.262,41.438 C61.262,43.49 50,49.416 50,49.416 C50,49.416 38.738,43.49 38.738,41.438 L38.738,38.53 C37.789,38.129 36.531,36.085 36.369,33.542 C36.206,30.979 36.686,28.809 37.47,28.322 L37.47,26.762 C37.117,27.078 36.805,27.39 36.722,27.567 C36.722,27.567 36.722,24.319 38.634,24.159 C38.676,24.112 38.719,24.064 38.762,24.015 C38.449,23.763 37.732,23.279 36.962,23.368 C36.962,23.368 38.786,21.519 39.65,22.167 C39.65,22.167 39.098,20.92 37.777,20.823 C37.779,20.823 39.747,19.263 40.85,20.247 C40.85,20.247 40.802,18.687 39.674,18.135 C39.674,18.135 41.354,17.704 42.553,18.615 C42.553,18.615 42.986,16.825 41.617,15.728 C41.617,15.728 44.095,15.577 45.106,16.954 C44.943,16.706 44.382,15.624 45.553,13.888 C45.554,13.888 46.898,16.36 47.546,16.503 C47.816,15.391 47.975,14.255 48.071,13.116 z M55.019,23.415 C53.196,23.386 51.438,24.161 50,25.249 C50,25.249 40.411,17.751 40.411,33 L40.1,32.478 C39.616,31.667 38.669,30.38 38.188,30.38 C38.18,30.38 38.171,30.38 38.164,30.382 C38.132,30.437 38.04,30.68 38.01,31.619 C37.99,32.304 38.012,33.026 38.038,33.437 C38.095,34.324 38.328,35.225 38.694,35.973 C39.055,36.706 39.368,36.963 39.419,37.002 L40.243,37.348 L40.243,36.005 L42.193,36.005 L42.193,41.169 C44.047,42.643 46.737,43.485 47.159,43.701 L52.841,43.701 C53.263,43.485 55.953,42.643 57.807,41.169 L57.807,36.005 L59.757,36.005 L59.757,37.348 L60.581,37.002 C60.632,36.963 60.947,36.706 61.306,35.973 C61.672,35.225 61.905,34.324 61.962,33.437 C61.988,33.026 62.01,32.304 61.99,31.619 C61.96,30.68 61.868,30.437 61.836,30.382 C61.829,30.38 61.82,30.38 61.812,30.38 C61.331,30.38 60.384,31.667 59.9,32.478 L59.588,33 C59.546,30.189 59.381,25.143 56.341,23.741 C55.913,23.542 55.483,23.47 55.019,23.415 z" fill="#444444"/>
      <path d="M100,10 C100,4.48 95.52,0 90,0 L10,0 C4.48,0 0,4.48 0,10 L0,70 C0,75.52 4.48,80 10,80 L90,80 C95.52,80 100,75.52 100,70 L100,10 z M90,70 L10,70 L10,10 L90.015,10 L90,70 z" fill="#444444"/>
    </g>
  </g>
</svg>
