<?xml version="1.0" encoding="UTF-8"?>
<!DOCTYPE svg PUBLIC "-//W3C//DTD SVG 1.1//EN" "http://www.w3.org/Graphics/SVG/1.1/DTD/svg11.dtd">
<svg version="1.1" xmlns="http://www.w3.org/2000/svg" xmlns:xlink="http://www.w3.org/1999/xlink" x="0" y="0" width="256" height="256" viewBox="0, 0, 256, 256">
  <g id="contact-plus">
    <g>
      <path d="M69.193,168.437 L69.092,167.062 C69.092,147.901 83.976,147.79 104.123,140.989 C107.297,148.811 116.788,154.489 128,154.489 C139.212,154.489 148.703,148.811 151.877,140.989 L153.753,141.607 C162.487,144.874 175.856,146.323 182.441,153.445 C185.887,157.172 186.849,162.137 186.908,167.062 L186.807,168.437 C183.553,184.708 139.942,187.042 128,187.255 C112.278,186.898 95.787,186.132 81.162,179.682 C76.508,177.63 70.005,174.141 69.207,168.437 L69.193,168.437 z" fill="#DA2C41"/>
      <path d="M123.448,64.553 C125.683,66.349 128.16,68.588 128.527,71.586 C129.489,70.057 129.771,65.073 129.771,65.073 C133.963,67.793 133.793,72.548 133.793,72.548 C135.321,72.211 138.495,66.375 138.492,66.375 C141.261,70.473 139.935,73.026 139.549,73.611 C141.935,70.362 147.783,70.718 147.783,70.718 C144.553,73.307 145.574,77.532 145.574,77.532 C148.405,75.382 152.368,76.4 152.368,76.4 C149.708,77.702 149.593,81.384 149.593,81.384 C152.201,79.06 156.845,82.742 156.842,82.742 C153.73,82.971 152.427,85.913 152.427,85.913 C154.466,84.385 158.77,88.747 158.77,88.747 C156.953,88.538 155.261,89.68 154.518,90.276 C154.623,90.39 154.725,90.505 154.823,90.616 C159.336,90.992 159.336,98.657 159.336,98.657 C159.139,98.241 158.403,97.505 157.572,96.759 L157.572,100.441 C159.421,101.589 160.553,106.711 160.17,112.759 C159.787,118.761 156.819,123.585 154.577,124.531 L154.577,131.393 C154.577,136.237 128,150.221 128,150.221 C128,150.221 101.423,136.237 101.423,131.393 L101.423,124.531 C99.181,123.585 96.213,118.761 95.83,112.759 C95.447,106.711 96.579,101.589 98.428,100.441 L98.428,96.759 C97.597,97.505 96.861,98.241 96.664,98.657 C96.664,98.657 96.664,90.992 101.177,90.616 C101.275,90.505 101.377,90.39 101.478,90.276 C100.739,89.68 99.047,88.538 97.23,88.747 C97.23,88.747 101.534,84.385 103.573,85.913 C103.573,85.913 102.27,82.971 99.155,82.742 C99.158,82.742 103.802,79.06 106.407,81.384 C106.407,81.384 106.292,77.702 103.632,76.4 C103.632,76.4 107.595,75.382 110.426,77.532 C110.426,77.532 111.447,73.307 108.217,70.718 C108.217,70.718 114.065,70.362 116.451,73.611 C116.065,73.026 114.742,70.473 117.505,66.375 C117.508,66.375 120.679,72.211 122.207,72.548 C122.846,69.923 123.222,67.243 123.448,64.553 z M139.844,88.859 C135.543,88.79 131.394,90.619 128,93.188 C128,93.188 105.37,75.493 105.37,111.479 L104.636,110.249 C103.494,108.334 101.259,105.297 100.123,105.297 C100.104,105.297 100.084,105.297 100.068,105.301 C99.993,105.431 99.773,106.004 99.705,108.22 C99.655,109.836 99.708,111.541 99.77,112.51 C99.904,114.605 100.454,116.732 101.318,118.496 C102.169,120.227 102.908,120.833 103.03,120.924 L104.974,121.742 L104.974,118.571 L109.575,118.571 L109.575,130.759 C113.95,134.237 120.299,136.224 121.294,136.734 L134.706,136.734 C135.701,136.224 142.05,134.237 146.425,130.759 L146.425,118.571 L151.026,118.571 L151.026,121.742 L152.97,120.924 C153.092,120.833 153.834,120.227 154.682,118.496 C155.546,116.732 156.096,114.605 156.23,112.51 C156.292,111.541 156.345,109.836 156.295,108.22 C156.227,106.004 156.007,105.431 155.932,105.301 C155.916,105.297 155.896,105.297 155.877,105.297 C154.741,105.297 152.506,108.334 151.364,110.249 L150.627,111.479 C150.529,104.846 150.14,92.936 142.966,89.628 C141.955,89.16 140.94,88.99 139.844,88.859 z" fill="#444444"/>
      <path d="M246,57.2 C246,44.173 235.427,33.6 222.4,33.6 L33.6,33.6 C20.573,33.6 10,44.173 10,57.2 L10,198.8 C10,211.827 20.573,222.4 33.6,222.4 L222.4,222.4 C235.427,222.4 246,211.827 246,198.8 L246,57.2 z M222.4,198.8 L33.6,198.8 L33.6,57.2 L222.435,57.2 L222.4,198.8 z" fill="#444444"/>
    </g>
  </g>
</svg>
