<!-- Generated by IcoMoon.io -->
<svg version="1.1" xmlns="http://www.w3.org/2000/svg" width="64" height="64" viewBox="0 0 64 64">
<title>add</title>
<path d="M53 54h-6c-0.552 0-1-0.448-1-1s0.448-1 1-1h5v-5c0-0.552 0.448-1 1-1 0.55 0 1 0.448 1 1v6c0 0.552-0.45 1-1 1zM53 42c-0.552 0-1-0.448-1-1v-6c0-0.552 0.448-1 1-1 0.55 0 1 0.448 1 1v6c0 0.552-0.45 1-1 1zM53 30c-0.552 0-1-0.448-1-1v-6c0-0.552 0.448-1 1-1 0.55 0 1 0.448 1 1v6c0 0.552-0.45 1-1 1zM53 18c-0.552 0-1-0.448-1-1v-5h-5c-0.552 0-1-0.448-1-1s0.448-1 1-1h6c0.55 0 1 0.448 1 1v6c0 0.552-0.45 1-1 1zM41 54h-6c-0.552 0-1-0.448-1-1s0.448-1 1-1h6c0.55 0 1 0.448 1 1s-0.45 1-1 1zM41 12h-6c-0.552 0-1-0.448-1-1s0.448-1 1-1h6c0.55 0 1 0.448 1 1s-0.45 1-1 1zM39.876 30c1.104 0 2 0.894 2 2 0 1.104-0.896 2-2 2h-6v6c0 1.104-0.896 2-2 2-1.106 0-2-0.896-2-2v-6h-6c-1.104 0-2-0.896-2-2 0-1.106 0.894-2 2-2h6v-6c0-1.106 0.894-2 2-2 1.104 0 2 0.894 2 2v6h6zM29 12h-6c-0.552 0-1-0.448-1-1s0.448-1 1-1h6c0.55 0 1 0.448 1 1s-0.45 1-1 1zM17 54h-6c-0.552 0-1-0.448-1-1v-6c0-0.552 0.448-1 1-1s1 0.448 1 1v5h5c0.552 0 1 0.448 1 1s-0.448 1-1 1zM17 12h-5v5c0 0.552-0.448 1-1 1s-1-0.448-1-1v-6c0-0.552 0.448-1 1-1h6c0.552 0 1 0.448 1 1s-0.448 1-1 1zM11 22c0.552 0 1 0.448 1 1v6c0 0.552-0.448 1-1 1s-1-0.448-1-1v-6c0-0.552 0.448-1 1-1zM11 34c0.552 0 1 0.448 1 1v6c0 0.552-0.448 1-1 1s-1-0.448-1-1v-6c0-0.552 0.448-1 1-1zM23 52h6c0.55 0 1 0.448 1 1s-0.45 1-1 1h-6c-0.552 0-1-0.448-1-1s0.448-1 1-1z"></path>
</svg>
