<!-- Generated by IcoMoon.io -->
<svg version="1.1" xmlns="http://www.w3.org/2000/svg" width="64" height="64" viewBox="0 0 64 64">
<title>calendar</title>
<path d="M56 60h-48c-2.208 0-4-1.792-4-4v-42c0-2.208 1.792-4 4-4h4v2c0 3.314 2.686 6 6 6s6-2.686 6-6v-2h16v2c0 3.314 2.688 6 6 6s6-2.686 6-6v-2h4c2.208 0 4 1.792 4 4v42c0 2.208-1.792 4-4 4zM56 24h-48v32h48v-32zM26.138 39.658c0.394-0.628 0.592-1.292 0.592-1.986 0-1.546-0.832-2.32-2.496-2.32-1.446 0-2.828 0.574-4.148 1.722v-3.258c1.46-0.946 3.11-1.418 4.946-1.418 1.718 0 3.060 0.432 4.026 1.294s1.448 2.030 1.448 3.498c0 1.96-1.176 3.988-3.528 6.082l-3.458 3.070v0.070h6.82v3.070h-11.062v-2.882l4.816-4.606c0.968-0.928 1.65-1.706 2.044-2.336zM39.674 46.332c0.528-0.406 0.792-0.972 0.792-1.7 0-0.75-0.326-1.328-0.978-1.734s-1.548-0.61-2.69-0.61h-1.512v-2.836h1.394c2.188 0 3.282-0.726 3.282-2.18 0-1.368-0.84-2.050-2.52-2.050-1.124 0-2.218 0.364-3.282 1.090v-3.024c1.18-0.594 2.554-0.89 4.124-0.89 1.718 0 3.056 0.386 4.014 1.16s1.436 1.778 1.436 3.012c0 2.196-1.114 3.57-3.34 4.124v0.058c1.188 0.148 2.124 0.58 2.812 1.294s1.032 1.592 1.032 2.63c0 1.57-0.574 2.812-1.722 3.726s-2.734 1.372-4.758 1.372c-1.734 0-3.144-0.282-4.23-0.844v-3.222c1.124 0.82 2.438 1.23 3.938 1.23 0.944 0.004 1.68-0.2 2.208-0.606zM45.938 16c-2.176 0-3.938-1.762-3.938-3.938v-4.124c0-2.176 1.762-3.938 3.938-3.938s3.938 1.762 3.938 3.938v4.124c0 2.176-1.762 3.938-3.938 3.938zM17.938 16c-2.176 0-3.938-1.762-3.938-3.938v-4.124c0-2.176 1.762-3.938 3.938-3.938s3.938 1.762 3.938 3.938v4.124c0 2.176-1.764 3.938-3.938 3.938z"></path>
</svg>
